/* XPM */
static char *dummy[]={
"64 64 204 2",
"Qt c None",
".7 c #363636",
".L c #363636",
"aw c #363636",
".H c #363636",
"#M c #363636",
".5 c #363636",
"#7 c #363636",
"#x c #363636",
".g c #363636",
"#H c #363636",
"a# c #363636",
".b c #363636",
"#6 c #363636",
"aU c #363636",
"#X c #363636",
"aZ c #363636",
"aY c #363636",
".D c #363636",
"#Y c #363636",
".x c #363636",
".w c #363636",
"aN c #363636",
".6 c #363636",
"az c #363636",
"aA c #363636",
"aE c #363636",
"aT c #363636",
"#U c #363636",
"aI c #363636",
".# c #363636",
"bh c #363636",
"ae c #363636",
"#y c #363636",
".8 c #363636",
"be c #363636",
".k c #363636",
"a. c #363636",
"#0 c #363636",
"aa c #363636",
"ac c #363636",
"ab c #363636",
"#8 c #363636",
"aF c #363636",
"al c #363636",
"bb c #363636",
"#K c #363636",
"a9 c #363636",
"au c #363636",
".y c #363636",
".m c #363636",
"#w c #363636",
"aM c #363636",
"#R c #363636",
"aR c #363636",
"aV c #363636",
"aD c #363636",
".a c #363636",
"bg c #363636",
"#4 c #363636",
".9 c #363636",
"av c #363636",
"#z c #363636",
"aH c #363636",
".s c #363636",
".n c #363636",
".l c #363636",
"bc c #363636",
".f c #363636",
".V c #363636",
"ak c #363636",
"a6 c #363636",
".2 c #363636",
".U c #363636",
"a0 c #363636",
"#V c #363636",
".t c #363636",
".Q c #363636",
"#. c #363636",
"aP c #363636",
"aQ c #363636",
"aK c #363636",
".E c #363636",
".G c #363636",
"aB c #363636",
"aC c #363636",
"bi c #363636",
"ay c #363636",
"#1 c #363636",
"bd c #363636",
"bj c #363636",
"ad c #363636",
"#S c #363636",
".A c #363636",
"#I c #363636",
"aO c #363636",
"#A c #363636",
"#W c #363636",
".R c #363636",
"ai c #363636",
".K c #363636",
".P c #363636",
"#Q c #363636",
"at c #363636",
"aG c #363636",
"aq c #363636",
".S c #363636",
"#v c #363636",
"aW c #363636",
"aX c #363636",
"aj c #363636",
"a1 c #363636",
"as c #363636",
"#G c #363636",
"a2 c #363636",
"bf c #363636",
"ax c #363636",
".O c #363636",
"#n c #363636",
"aS c #363636",
"#o c #363636",
"#g c #363636",
"#c c #363636",
".e c #363636",
"a4 c #363636",
"#f c #363636",
"a3 c #363636",
"#Z c #363636",
".W c #363636",
"#e c #363636",
"af c #363636",
"ao c #363636",
"#d c #363636",
"ba c #363636",
"aL c #363636",
".T c #363636",
"#2 c #363636",
"#F c #363636",
"aJ c #363636",
"a5 c #363636",
"#m c #363636",
".0 c #363636",
".c c #363636",
"#s c #363636",
"ah c #363636",
"#r c #363636",
".z c #363636",
".u c #363636",
"#u c #363636",
".F c #363636",
"ap c #363636",
"#p c #363636",
"b# c #363636",
"#E c #363636",
".4 c #363636",
"#h c #363636",
".X c #363636",
"#P c #363636",
"an c #363636",
"#B c #363636",
"#C c #363636",
".p c #363636",
".B c #363636",
"#t c #363636",
"ag c #363636",
"#q c #363636",
".d c #363636",
"#9 c #363636",
".r c #363636",
"ar c #363636",
".M c #363636",
".Z c #363636",
"b. c #363636",
"#O c #363636",
"#T c #363636",
"a8 c #363636",
".h c #363636",
"## c #363636",
".J c #363636",
".q c #363636",
"#J c #363636",
"a7 c #363636",
".o c #363636",
"#D c #363636",
".I c #363636",
".3 c #363636",
"am c #363636",
"#5 c #363636",
".j c #363636",
"#N c #363636",
".C c #363636",
"#L c #363636",
"#3 c #363636",
".Y c #363636",
"#b c #363636",
"#i c #363636",
".v c #363636",
".N c #363636",
"#l c #363636",
"#k c #363636",
".1 c #363636",
"#a c #363636",
"#j c #363636",
".i c #363636",
"QtQtQtQtQtQtQtQtQtQtQtQtQtQtQtQtQtQtQtQtQtQtQtQtQtQtQtQtQtQtQtQtQtQtQtQtQtQtQtQtQtQtQtQtQtQtQtQtQtQtQtQtQtQtQtQtQtQtQtQtQtQtQtQt",
"QtQtQtQtQtQtQtQtQtQtQtQtQtQtQtQtQtQtQtQtQtQtQtQtQtQtQtQtQtQtQtQtQtQtQtQtQtQtQtQtQtQtQtQtQtQtQtQtQtQtQtQtQtQtQtQtQtQtQtQtQtQtQtQt",
"QtQtQtQtQtQtQtQtQtQtQtQtQtQtQtQtQtQtQtQtQtQtQtQtQtQtQtQtQtQtQtQtQtQtQtQtQtQtQtQtQtQtQtQtQtQtQtQtQtQtQtQtQtQtQtQtQtQtQtQtQtQtQtQt",
"QtQtQtQtQtQtQtQtQtQtQtQtQtQtQtQtQtQtQtQtQtQtQtQtQtQtQtQtQtQtQtQtQtQtQtQtQtQtQtQtQtQtQtQtQtQtQtQtQtQtQtQtQtQtQtQtQtQtQtQtQtQtQtQt",
"QtQtQtQtQtQtQtQtQtQtQtQtQtQtQtQtQtQtQtQtQtQtQtQtQtQtQtQtQtQtQtQtQtQtQtQtQtQtQtQtQtQtQtQtQtQtQtQtQtQtQtQtQtQtQtQtQtQtQtQtQtQtQtQt",
"QtQtQtQtQtQtQtQtQtQtQtQtQtQtQtQtQtQtQtQtQtQtQtQtQtQtQtQtQtQtQtQtQtQtQtQtQtQtQtQtQtQtQtQtQtQtQtQtQtQtQtQtQtQtQtQtQtQtQtQtQtQtQtQt",
"QtQtQtQtQtQtQtQtQtQtQtQtQtQtQtQtQtQtQtQtQtQtQtQtQtQtQtQtQtQtQtQtQtQtQtQtQtQtQtQtQtQtQtQtQtQtQtQtQtQtQtQtQtQtQtQtQtQtQtQtQtQtQtQt",
"QtQtQtQtQtQtQtQtQtQtQtQtQtQtQtQtQtQtQtQtQtQtQtQtQtQtQtQtQtQtQtQtQtQtQtQtQtQtQtQtQtQtQtQtQtQtQtQtQtQtQtQtQtQtQtQtQtQtQtQtQtQtQtQt",
"QtQtQtQtQtQtQtQtQtQtQtQtQtQtQtQtQtQtQtQtQtQtQtQtQtQtQtQtQtQtQtQtQtQtQtQtQtQtQtQtQtQtQtQtQtQtQtQtQtQtQtQtQtQtQtQtQtQtQtQtQtQtQtQt",
"QtQtQtQtQtQtQtQtQtQtQtQtQtQtQtQtQtQtQtQtQtQtQtQtQtQtQtQtQtQtQtQtQtQtQtQtQtQtQtQtQtQtQtQtQtQtQtQtQtQtQtQtQtQtQtQtQtQtQtQtQtQtQtQt",
"QtQtQtQtQtQtQtQtQtQtQtQtQtQtQtQtQtQtQtQtQtQtQtQtQtQtQtQtQtQtQtQtQtQtQtQtQtQtQtQtQtQtQtQtQtQtQtQtQtQtQtQtQtQtQtQtQtQtQtQtQtQtQtQt",
"QtQtQtQtQtQtQtQtQtQtQtQtQtQtQtQtQtQtQtQtQtQtQtQtQtQtQtQtQtQtQtQtQtQtQtQtQtQtQtQtQtQtQtQtQtQtQtQtQtQtQtQtQtQtQtQtQtQtQtQtQtQtQtQt",
"QtQtQtQtQtQtQtQtQtQtQtQtQtQtQtQtQtQtQtQtQtQtQtQtQtQtQtQtQtQtQtQtQtQtQtQtQtQtQtQtQtQtQtQtQtQtQtQtQtQtQtQtQtQtQtQtQtQtQtQtQtQtQtQt",
"QtQtQtQtQtQtQtQtQtQtQtQtQtQtQtQtQtQtQtQtQtQtQtQtQtQtQtQtQtQtQtQtQtQtQtQtQtQtQtQtQtQtQtQtQtQtQtQtQtQtQtQtQtQtQtQtQtQtQtQtQtQtQtQt",
"QtQtQtQtQtQtQtQtQtQtQtQtQtQtQtQtQtQtQtQtQtQtQtQtQtQtQtQtQtQtQtQtQtQtQtQtQtQtQtQtQtQtQtQtQtQtQtQtQtQtQtQtQtQtQtQtQtQtQtQtQtQtQtQt",
"QtQtQtQtQtQtQtQtQtQtQtQtQtQtQtQtQtQtQtQtQtQtQtQtQtQtQtQtQtQtQtQtQtQtQtQtQtQtQtQtQtQtQtQtQtQtQtQtQtQtQtQtQtQtQtQtQtQtQtQtQtQtQtQt",
"QtQtQtQtQtQtQtQtQtQtQtQtQtQtQtQtQtQtQtQtQtQtQtQtQtQtQtQtQtQtQtQtQtQtQtQtQtQtQtQtQtQtQtQtQtQtQtQtQtQtQtQtQtQtQtQtQtQtQtQtQtQtQtQt",
"QtQtQtQtQtQtQtQtQtQtQtQtQtQtQtQtQtQtQtQtQtQtQtQtQtQtQtQtQtQtQtQtQtQtQtQtQtQtQtQtQtQtQtQtQtQtQtQtQtQtQtQtQtQtQtQtQtQtQtQtQtQtQtQt",
"QtQtQtQtQtQtQtQtQtQtQtQtQtQtQtQtQtQtQtQtQtQtQtQtQtQtQtQtQtQtQtQtQtQtQtQtQtQtQtQtQtQtQtQtQtQtQtQtQtQtQtQtQtQtQtQtQtQtQtQtQtQtQtQt",
"QtQtQtQtQtQtQtQtQtQtQtQtQtQtQtQtQtQtQtQtQtQtQtQtQtQtQtQtQtQtQtQtQtQtQtQtQtQtQtQtQtQtQtQtQtQtQtQtQtQtQtQtQtQtQtQtQtQtQtQtQtQtQtQt",
"QtQtQtQtQtQtQtQtQtQtQtQtQtQtQtQtQtQtQtQtQtQtQtQtQtQtQtQtQtQtQtQtQtQtQtQtQtQtQtQtQtQtQtQtQtQtQtQtQtQtQtQtQtQtQtQtQtQtQtQtQtQtQtQt",
"QtQtQtQtQtQtQtQtQtQtQtQtQtQtQtQtQtQtQtQtQtQtQtQtQtQtQtQtQtQtQtQtQtQtQtQtQtQtQtQtQtQtQtQtQtQtQtQtQtQtQtQtQtQtQtQtQtQtQtQtQtQtQtQt",
"QtQtQtQtQtQtQtQtQtQtQtQtQtQtQtQtQtQtQtQtQtQtQtQtQtQtQtQtQtQtQtQtQtQtQtQtQtQtQtQtQtQtQtQtQtQtQtQtQtQtQtQtQtQtQtQtQtQtQtQtQtQtQtQt",
"QtQtQtQtQtQtQtQtQtQtQtQtQtQtQtQtQtQtQtQtQtQtQtQtQtQtQtQtQtQtQtQtQtQtQtQtQtQtQtQtQtQtQtQtQtQtQtQtQtQtQtQtQtQtQtQtQtQtQtQtQtQtQtQt",
"QtQt.#.a.bQtQtQtQtQtQtQtQtQtQtQtQtQtQtQtQtQtQtQtQtQtQtQtQtQtQtQtQtQtQtQtQtQtQtQtQtQtQtQtQtQtQtQtQtQtQtQtQtQtQtQtQtQtQt.c.d.e.fQt",
".g.h.i.i.j.kQtQtQtQtQtQtQtQtQtQtQtQtQtQtQtQtQtQtQtQtQtQtQtQtQtQtQtQtQtQtQtQtQtQtQtQtQtQtQtQtQtQtQtQtQtQtQtQtQtQtQtQt.l.i.i.i.i.m",
".n.i.o.p.i.lQtQtQtQtQtQtQtQtQtQtQtQtQtQtQtQtQtQtQtQtQtQtQtQtQtQtQtQtQtQtQtQtQtQtQtQtQtQtQtQtQtQtQtQtQtQtQtQtQtQtQtQt.l.i.q.r.i.s",
".t.i.u.v.i.wQtQtQtQtQtQtQtQtQtQtQtQtQtQtQtQtQtQtQtQtQtQtQtQtQtQtQtQtQt.x.yQtQtQtQtQtQtQtQtQtQtQtQtQtQtQtQtQtQtQtQtQt.z.i.i.i.i.s",
".A.i.B.i.CQtQtQtQtQtQtQtQtQtQtQtQtQtQtQtQtQt.g.D.D.DQtQtQt.E.F.F.GQt.H.I.i.J.K.LQtQtQtQtQtQtQtQtQtQtQtQtQtQtQtQtQtQt.M.i.N.i.i.s",
".O.i.i.i.i.P.Q.Q.Q.R.S.T.U.V.t.P.P.W.X.X.q.Y.N.i.i.i.Y.Z.0.1.i.i.pQt.2.i.3.i.i.4QtQtQtQtQtQtQt.5.6QtQtQtQtQt.7.8.9#..W.i##.i.i.s",
".0.i#a.i.i.i.i.i.i.i.i.i.i.i.i.i.i.i.i.i.i.i.i.j.j.j.i.i.i.i.i.i#bQt.P.i#c#d.i.C#e#f#g#h.o#i#j.i.i#j#a.1#k#k#k.i.i.i.i.i.J.i.i.k",
".g.Y.i.i#l#m#m#m#m#n#o.4#p#q#r#s#t.X#u#c#v#w#xQtQtQt#y#z#A#j.i#i#iQt.P.i#i#a.i.i.i.i.i.i.i.i.i.i.i.i.i.i.i.i.i#a#j.i.i.i#a.i.i.b",
"Qt.q.i.i.v#B#m#p#C#q.J.Y.N.1.i.i.i.i.i.i.i.i#a#l#D#E#F#r.h.i.i#i#iQt.l.i.i.i.i#l#k.1#b.o.X#G.9#H#y#I#u.i.i.i.i.i.i#j.i.i.i.i#jQt",
"Qt.1.i.i.i.i.i.i.i.i.i.i.i.i.i.i.i.i.i.i.i.i.i.i.i.i.i.i.i.i.i.i#JQt#K.i.Y.i.1.0.Z#L#L#L#L.i.i.i.j.d.o.i.i.i.i.i#L.C.i.i.i.i#lQt",
"#M.i.i.i.v#b#a#N#O#O#P#c#Q#..U.Q.Q.Q.Q.Q#R#w.n#S#u#D.Y.1.3.i.i.i.cQt.s.i#T.i.i.i.i.i.i.i.i.v.v.v.i.i.i.i.q.q.q.N.i.i.i.i.i.i#iQt",
"#U.i.i.i.FQtQtQtQtQtQtQtQtQtQtQtQtQtQtQtQtQtQtQtQtQtQtQt#V.i.i.i#GQt#W.i#r#i.i.F.a#U.x.x.xQtQt#H.D#K#K#XQtQtQtQt#Y#Y#Z.i.i.i#iQt",
"#0.i.i.i.FQtQtQtQtQtQtQtQtQtQtQtQtQtQtQtQtQtQtQtQtQtQtQt.c.i#a.i#1Qt.X.i#..3.i#2QtQtQtQtQtQtQtQtQtQtQtQtQtQtQtQtQtQt#I.i.i.i#iQt",
"#0.i.i.i.FQtQtQtQtQtQtQtQtQtQtQtQtQtQtQtQtQtQtQtQtQtQtQt#3.i#i.i#4Qt#5.i#6.h.i#EQtQtQtQtQtQtQtQtQtQtQtQtQtQtQtQtQtQt.n.i.i.i#lQt",
"#7.i.i.i.FQtQtQtQtQtQtQtQtQtQtQtQtQtQtQtQtQtQtQtQtQtQt#0.i.i.3.i#4Qt.r.i#8#9.i.dQtQtQtQtQtQtQtQt#7#Ya.a##7#7#7#7QtQtaa.i.i.i.1Qt",
"#7.i.i.i#D#7#7QtQtQtQtQtQtQtQtQtQtQtQtQtQtabababac#H#Had.i.i#3.iaeQtaf.i#s#a.i.1.d.d.d.j.j.j.j.j.i.i.i.i.i.i.i.i#5ag.o#j.i.i.i.k",
"#7.i.i.i#j#a#a.C.C.C.C.C#tah#caiaiaj#F.r#3.i.i.i.i.i.i.i.i.i.N.iaeQtak.i#5.i.i.i.i.i.i.i.i.i.i.i#l#l#J.N.N.N.N.N.i.i.i.i.i.i.iac",
"Qt.3.i.i.i.i#N.i.i.i.i.i.i.i.i.i.i.i.i.i.i.h.h.h#J.Y.Y#3.i.i#k.i.tQtal.i#D.i.i.raf#h.Y.i.i.i.i.i.i.i.i.i.i.i.i#b#bam.h.i.i.i.iab",
"Qt.I.i.i.1.i#9#L#L#L###tanao#v.eap#l.i.i.i.i.i.i.i.i.i.i.i.i#N.iaqQtQt.C#j.i.i.i.i.i.i.i.i.i.i.i.i.i.i.i.i.i.i.i.i.i.i.i.i.i.ia.",
"Qt.I.i.i.I.i.i#k#k.i.i.i.i.i.i.i.i.i.C.C.C.C.C.C.C.d.q.3.1.iam.iajQtQt#t.i.i.i#O.Carahasat.O.0.0.0.0ar.C.i.i.i.i.i.i.i#j.i.i.ia.",
"Qt.I.i.i.pauavawaw.6.kav.V.KaxaxayazQtQtQtQtQtQtQtQtQtQt#E.i.C.iajQtQt#F.i.i#iQtQtQtQtQtQtQtQtQtQtQtQtQtaA.9aBaCaCaDaE#b.i.i.iaF",
"#M#a.i.i#DQtQtQtQtQtQtQtQtQtQtQtQtQtQtQtQtQtQtQtQtQtQtQt#F.i.v.iajQtQtaG.i.i.MQtQtQtQtQtQtQtQtQtQtQtQtQtQtQtQtQtQtQtQt#5.i.i.iaH",
"aI.i#k.i#DQtQtQtQtQtQtQtQtQtQtQtQtQtQtQtQtQtQtQtQtQtQtQtaJ.i.1.iaKQtQtaG.i.iaLQtQtQtQtQtQtQtQtQtQtQtQtQtQtQtQtQtQtQtQt#5.i.i.iaH",
"aM.i.j.i.vQtQtQtQtQtQtQtQtQtQtQtQtQtQtQtQtQtQtQtQtQtQtQt#d.i#j.iaMQtQtaG.i.iaLQtQtQtQtQtQtQtQtQtQtQtQtQtQtQtQtQtQtQtQt#D.i.i.i#S",
"aH.i.q.i.1QtQtQtQtQtQtQtQtQtQtQtQtQtQtQtQtQtQtQtQtQtQtQt#r.i.i.iaNQtQt#e.i.iaLQtQtQtQtQtQtQtQtQtQtQtQtQtQtQtQtQtQtQtQt.J.i.i.iaO",
".G.i#3.i.iayaP#w#waQaQaQaRaz#R.E.E.EaSaoaiad.U#R#RaTaUQt#c.i.i.i.HQtQt.p.i.iaJ#U#R#..S.S.KaQaVaVaVaV.9.G.G.GaWaXaf#E#E.C.i.i.i.O",
"aM.i#b.i.i.i.i.i.i.i.i.i.i.i.i.i.i.i.i.i.i.i.i.i.i.i.i#l#j.i#j.iaYQtaZ.i#a.i.1.i.i.i.i.i.i.i.i.i.i.i.i.i.i.i.i.i.i.i.i.i.i.i.iah",
"#0.i#5.i.i.j.3.3.i.i.i.i.i.i.i.i.i.i.i.i.1.1.1.i.i.i.i.i.i.i#k.ia0Qt#K.i#J.i.vam.B#2a1a1aJaJagagagagag#m#m#ma2a2aCaDaD.3.i.i.iah",
".g.i#k.i.i.taP#G#d#9#D.1.i.i#k.I#ta3.P.aacac.t#Aa4a5#u.o.i.i.o.i#iala6.i#B.iam.3a7#O.Z.Z.o.j#b.j.C.C.j.o.oa8#5a7.Y#O.M.o.i.i.iah",
".g.i#j.i.i.i.i.i.i.i.i.i.i.i.i.i.i.i.i.i.i.i.i.i.i.i.i.i.i.i#D.i.ia2a6.i#P.i.i.i.i.i.i.i.i.i.i.i.i.i.i.i.i.i.i.i.i.i.i.i.i.i.iah",
".g.i#a.i.i.i#a#i#5#5#i.i.i.i.i.i.i.i.i.i.i.i.i.i.i.i.i.i.i.i.i.i.iaLa9.ib..i.1b#a5#E.4.4#paoba#o.e.e#e.0.0#P#ta7#b.i.i.i.i.i.i#r",
".g.i.Nag.iakQtQtQtQtQt#Xbbbbbcbcbcbcbc.nbdaSaS.u.u.ub.b..3.i.i.i.i.Tbe.ia7#J.i#UQtQtQtQtQtQtQtQtQtQtQtQtQtQtQtQtQtaZ#K.e.i#l.i.d",
".g.i.Nb#.i.sQtQtQtQtQtQtQtQtQtQtQtQtQtQtQtQtQtQtQtQtQtQta0.i.i.i.iajQtar.i.i.i.wQtQtQtQtQtQtQtQtQtQtQtQtQtQtQtQtQtQtQtaO.i.i.i#q",
".g.i.Nb#.i.sQtQtQtQtQtQtQtQtQtQtQtQtQtQtQtQtQtQtQtQtQtQtQt.Rbfbf.K.HQt.DbgbgbhQtQtQtQtQtQtQtQtQtQtQtQtQtQtQtQtQtQtQtQtaO.i#O.iah",
".g.i.Nb#.i.sQtQtQtQtQtQtQtQtQtQtQtQtQtQtQtQtQtQtQtQtQtQtQtQtQtQtQtQtQtQtQtQtQtQtQtQtQtQtQtQtQtQtQtQtQtQtQtQtQtQtQtQtQt.f.i#u.i.O",
"Qt#b.ib#.i.sQtQtQtQtQtQtQtQtQtQtQtQtQtQtQtQtQtQtQtQtQtQtQtQtQtQtQtQtQtQtQtQtQtQtQtQtQtQtQtQtQtQtQtQtQtQtQtQtQtQtQtQtQt.f.i#u.i.O",
"Qt.C.ib#.i.sQtQtQtQtQtQtQtQtQtQtQtQtQtQtQtQtQtQtQtQtQtQtQtQtQtQtQtQtQtQtQtQtQtQtQtQtQtQtQtQtQtQtQtQtQtQtQtQtQtQtQtQtQt.f.i#u.i.O",
"Qtar.ib#.i.sQtQtQtQtQtQtQtQtQtQtQtQtQtQtQtQtQtQtQtQtQtQtQtQtQtQtQtQtQtQtQtQtQtQtQtQtQtQtQtQtQtQtQtQtQtQtQtQtQtQtQtQtQt#y.ia7.ia4",
"Qt.u.ib#.ibiQtQtQtQtQtQtQtQtQtQtQtQtQtQtQtQtQtQtQtQtQtQtQtQtQtQtQtQtQtQtQtQtQtQtQtQtQtQtQtQtQtQtQtQtQtQtQtQtQtQtQtQtQt#X.i.Y.i.c",
"Qt#m.i.i.ibjQtQtQtQtQtQtQtQtQtQtQtQtQtQtQtQtQtQtQtQtQtQtQtQtQtQtQtQtQtQtQtQtQtQtQtQtQtQtQtQtQtQtQtQtQtQtQtQtQtQtQtQtQt#X.i.Y.i.c"};
