/* XPM */
static char *dummy[]={
"64 64 119 2",
"Qt c None",
".x c None",
".f c #4a4a4a",
".v c #4a4a4a",
".j c #4a4a4a",
".k c #4a4a4a",
".i c #4a4a4a",
".y c #4a4a4a",
".e c #4a4a4a",
".c c #4a4a4a",
".t c #4a4a4a",
".d c #4a4a4a",
".K c #4a4a4a",
".O c #4a4a4a",
".E c #4a4a4a",
"#n c #4a4a4a",
".R c #4a4a4a",
".H c #4a4a4a",
"#Z c #4a4a4a",
"#t c #4a4a4a",
".U c #4a4a4a",
"#Q c #4a4a4a",
".8 c #4a4a4a",
"#R c #4a4a4a",
"#W c #4a4a4a",
"#Y c #4a4a4a",
"#T c #4a4a4a",
"#U c #4a4a4a",
"#V c #4a4a4a",
".S c #4a4a4a",
".P c #4a4a4a",
"#X c #4a4a4a",
".l c #4a4a4a",
".g c #4a4a4a",
"#S c #4a4a4a",
".p c #4a4a4a",
".s c #4a4a4a",
"## c #4a4a4a",
"#s c #4a4a4a",
"#P c #4a4a4a",
".u c #4a4a4a",
"#m c #4a4a4a",
"#H c #4a4a4a",
"#r c #4a4a4a",
"#l c #4a4a4a",
"#. c #4a4a4a",
"#j c #4a4a4a",
"#a c #4a4a4a",
"#o c #4a4a4a",
"#I c #4a4a4a",
".z c #4a4a4a",
"#b c #4a4a4a",
"#J c #4a4a4a",
".F c #4a4a4a",
".C c #4a4a4a",
"#p c #4a4a4a",
"#c c #4a4a4a",
"#K c #4a4a4a",
"#q c #4a4a4a",
"#L c #4a4a4a",
"#M c #4a4a4a",
".9 c #4a4a4a",
"#d c #4a4a4a",
"#e c #4a4a4a",
"#N c #4a4a4a",
"#f c #4a4a4a",
"#O c #4a4a4a",
".7 c #4a4a4a",
".6 c #4a4a4a",
"#g c #4a4a4a",
".5 c #4a4a4a",
"#h c #4a4a4a",
"#i c #4a4a4a",
"#E c #4a4a4a",
"#F c #4a4a4a",
"#D c #4a4a4a",
".3 c #4a4a4a",
".2 c #4a4a4a",
"#C c #4a4a4a",
"#B c #4a4a4a",
".1 c #4a4a4a",
"#A c #4a4a4a",
"#y c #4a4a4a",
"#x c #4a4a4a",
"#z c #4a4a4a",
".0 c #4a4a4a",
".Z c #4a4a4a",
"#w c #4a4a4a",
"#v c #4a4a4a",
".Y c #4a4a4a",
"#G c #4a4a4a",
".A c #4a4a4a",
".X c #4a4a4a",
".W c #4a4a4a",
"#u c #4a4a4a",
".V c #4a4a4a",
".b c #4a4a4a",
".w c #4a4a4a",
".G c #4a4a4a",
".J c #4a4a4a",
".L c #4a4a4a",
".N c #4a4a4a",
".Q c #4a4a4a",
".T c #4a4a4a",
"#0 c #4a4a4a",
".n c #4a4a4a",
"#k c #4a4a4a",
".o c #4a4a4a",
".D c #4a4a4a",
".M c #4a4a4a",
".h c #4a4a4a",
".B c #4a4a4a",
".4 c #4a4a4a",
".# c #4a4a4a",
".m c #4a4a4a",
".I c #4a4a4a",
".q c #4a4a4a",
".r c #4a4a4a",
".a c #4a4a4a",
"QtQtQtQtQtQtQtQtQtQtQtQtQtQtQtQtQtQtQtQtQtQtQtQtQtQtQtQtQtQtQtQtQtQtQtQtQtQtQtQtQtQtQtQtQtQtQtQtQtQtQtQtQtQtQtQtQtQtQtQtQtQtQtQt",
"QtQtQtQtQtQtQtQtQtQtQtQtQtQtQtQtQtQtQtQtQtQtQtQtQtQtQtQtQtQtQtQtQtQtQtQtQtQtQtQtQtQtQtQtQtQtQtQtQtQtQtQtQtQtQtQtQtQtQtQtQtQtQtQt",
"QtQtQtQtQtQtQtQtQtQtQtQtQtQtQtQtQtQtQtQtQtQtQtQtQtQtQtQtQtQtQtQtQtQtQtQtQtQtQtQtQtQtQtQtQtQtQtQtQtQtQtQtQtQtQtQtQtQtQtQtQtQtQtQt",
"QtQtQtQtQtQtQtQtQtQtQtQtQtQtQtQtQtQtQtQtQtQtQtQtQtQtQtQtQtQtQtQtQtQtQtQtQtQtQtQtQtQtQtQtQtQtQtQtQtQtQtQtQtQtQtQtQtQtQtQtQtQtQtQt",
"QtQtQtQtQtQtQtQtQtQtQtQtQtQtQtQtQtQtQtQtQtQtQtQtQtQtQtQtQtQtQtQtQtQtQtQtQtQtQtQtQtQtQtQtQtQtQtQtQtQtQtQtQtQtQtQtQtQtQtQtQtQtQtQt",
"QtQtQtQtQtQtQtQtQtQtQtQtQtQtQtQtQtQtQtQtQtQtQtQtQtQtQtQtQtQtQtQtQtQtQtQtQtQtQtQtQtQtQtQtQtQtQtQtQtQtQtQtQtQtQtQtQtQtQtQtQtQtQtQt",
"QtQtQtQtQtQtQtQtQtQtQtQtQtQtQtQtQtQtQtQtQtQtQtQtQtQtQtQtQtQtQtQtQtQtQtQtQtQtQtQtQtQtQtQtQtQtQtQtQtQtQtQtQtQtQtQtQtQtQtQtQtQtQtQt",
"QtQtQtQtQtQtQtQtQtQtQtQtQtQtQtQtQtQtQtQtQtQtQtQtQtQtQtQtQtQtQtQtQtQtQtQtQtQtQtQtQtQtQtQtQtQtQtQtQtQtQtQtQtQtQtQtQtQtQtQtQtQtQtQt",
"QtQtQtQtQtQtQtQtQtQtQtQtQtQtQtQtQtQtQtQtQtQtQtQtQtQtQtQtQtQtQtQtQtQtQtQtQtQtQtQtQtQtQtQtQtQtQtQtQtQtQtQtQtQtQtQtQtQtQtQtQtQtQtQt",
"QtQtQtQtQtQtQtQtQtQtQtQtQtQtQtQtQtQtQtQtQtQtQtQtQtQtQtQtQtQtQtQtQtQtQtQtQtQtQtQtQtQtQtQtQtQtQtQtQtQtQtQtQtQtQtQtQtQtQtQtQtQtQtQt",
"QtQtQtQtQtQtQtQtQtQtQtQtQtQtQtQtQtQtQtQtQtQtQtQtQtQtQtQtQtQtQtQtQtQtQtQtQtQtQtQtQtQtQtQtQtQtQtQtQtQtQtQtQtQtQtQtQtQtQtQtQtQtQtQt",
"QtQtQtQtQtQtQtQtQtQtQtQtQtQtQtQtQtQtQtQtQtQtQtQtQtQtQtQtQtQtQtQtQtQtQtQtQtQtQtQtQtQtQtQtQtQtQtQtQtQtQtQtQtQtQtQtQtQtQtQtQtQtQtQt",
"QtQtQtQtQtQtQtQtQtQtQtQtQtQtQtQtQtQtQtQtQtQtQtQtQtQtQtQtQtQtQtQtQtQtQtQtQtQtQtQtQtQtQtQtQtQtQtQtQtQtQtQtQtQtQtQtQtQtQtQtQtQtQtQt",
"QtQtQtQtQtQtQtQtQtQtQtQtQtQtQtQtQtQtQtQtQtQtQtQtQtQtQtQtQtQtQtQtQtQtQtQtQtQtQtQtQtQtQtQtQtQtQtQtQtQtQtQtQtQtQtQtQtQtQtQtQtQtQtQt",
"QtQtQtQtQtQtQtQtQtQtQtQtQtQtQtQtQtQtQtQtQtQtQtQtQtQtQtQtQtQtQtQtQtQtQtQtQtQtQtQtQtQtQtQtQtQtQtQtQtQtQtQtQtQtQtQtQtQtQtQtQtQtQtQt",
"QtQtQtQtQtQtQtQtQtQtQtQtQtQtQtQtQtQtQtQtQtQtQtQtQtQtQtQtQtQtQtQtQtQtQtQtQtQtQtQtQtQtQtQtQtQtQtQtQtQtQtQtQtQtQtQtQtQtQtQtQtQtQtQt",
"QtQtQtQtQtQtQtQtQtQtQtQtQtQtQtQtQtQtQtQtQtQtQtQtQtQtQtQtQtQtQtQtQtQtQtQtQtQtQtQtQtQtQtQtQtQtQtQtQtQtQtQtQtQtQtQtQtQtQtQtQtQtQtQt",
"QtQtQtQtQtQtQtQtQtQtQtQtQtQtQtQtQtQtQtQtQtQtQtQtQtQtQtQtQtQtQtQtQtQtQtQtQtQtQtQtQtQtQtQtQtQtQtQtQtQtQtQtQtQtQtQtQtQtQtQtQtQtQtQt",
"QtQtQtQtQtQtQtQtQtQtQtQtQtQtQtQtQtQtQtQtQtQtQtQtQtQtQtQtQtQtQtQtQtQtQtQtQtQtQtQtQtQtQtQtQtQtQtQtQtQtQtQtQtQtQtQtQtQtQtQtQtQtQtQt",
"QtQtQtQtQtQtQtQtQtQtQtQtQtQtQtQtQtQtQtQtQtQtQtQtQtQtQtQtQtQtQtQtQtQtQtQtQtQtQtQtQtQtQtQtQtQtQtQtQtQtQtQtQtQtQtQtQtQtQtQtQtQtQtQt",
"QtQtQtQtQtQtQtQtQtQtQtQtQtQtQtQtQtQtQtQtQtQtQtQtQtQtQtQtQtQtQtQtQtQtQtQtQtQtQtQtQtQtQtQtQtQtQtQtQtQtQtQtQtQtQtQtQtQtQtQtQtQtQtQt",
"QtQtQtQtQtQtQtQtQtQtQtQtQtQtQtQtQtQtQtQtQtQtQtQtQtQtQtQtQtQtQtQtQtQtQtQtQtQtQtQtQtQtQtQtQtQtQtQtQtQtQtQtQtQtQtQtQtQtQtQtQtQtQtQt",
"QtQtQtQtQtQtQtQtQtQtQtQtQtQtQtQtQtQtQtQtQtQtQtQtQtQtQtQtQtQtQtQtQtQtQtQtQtQtQtQtQtQtQtQtQtQtQtQtQtQtQtQtQtQtQtQtQtQtQtQtQtQtQtQt",
"QtQtQtQtQtQtQtQtQtQtQtQtQtQtQtQtQtQtQtQtQtQtQtQtQtQtQtQtQtQtQtQtQtQtQtQtQtQtQtQtQtQtQtQtQtQtQtQtQtQtQtQtQtQtQtQtQtQtQtQtQtQtQtQt",
".#.a.bQtQtQtQtQtQtQtQtQtQtQtQtQtQtQtQtQtQtQtQtQtQtQtQtQtQtQtQtQtQtQtQtQtQtQtQtQtQtQtQtQtQtQtQtQtQtQtQtQtQtQtQtQtQtQtQtQtQt.b.a.#",
".a.a.a.c.d.e.fQtQtQtQtQtQtQtQtQtQtQtQtQtQtQtQtQtQtQtQtQtQtQtQtQtQtQtQtQtQtQtQtQtQtQtQtQtQtQtQtQtQtQtQtQtQtQtQtQtQt.f.e.d.c.a.a.a",
".a.a.a.g.#.a.hQtQt.i.j.kQtQtQtQtQtQtQtQtQtQtQtQtQtQtQtQtQtQtQtQtQtQtQtQtQtQtQtQtQtQtQtQtQtQtQtQtQtQtQtQt.k.j.iQtQt.h.a.#.g.a.a.a",
".a.a.a.l.m.a.aQtQt.n.a.oQtQtQtQtQtQtQtQtQtQtQtQtQtQtQtQtQtQtQtQtQtQtQtQtQtQtQtQtQtQtQtQtQtQtQtQtQtQtQtQt.o.a.nQtQt.a.a.m.l.a.a.a",
".a.a.a.p.q.a.aQt.i.a.a.rQtQtQtQt.e.iQtQtQtQtQtQtQtQtQtQtQtQtQtQtQtQtQtQtQtQtQtQtQtQtQtQtQtQt.i.eQtQtQtQt.r.a.a.iQt.a.a.q.p.a.a.a",
".a.a.#.s.a.a.aQt.i.a.a.rQtQt.f.a.a.rQtQtQt.f.t.iQtQtQtQtQtQtQtQtQtQtQtQtQtQtQtQt.i.t.fQtQtQt.r.a.a.fQtQt.r.a.a.iQt.a.a.a.s.#.a.a",
".a.a.q.u.a.a.aQt.i.a.a.rQtQt.v.a.a.rQtQtQt.w.a.a.x.x.v.v.y.j.iQtQt.i.j.y.v.v.x.x.a.a.wQtQtQt.r.a.a.vQtQt.r.a.a.iQt.a.a.a.u.q.a.a",
".a.a.a.z.a.a.rQt.i.a.a.rQtQt.j.a.a.rQtQtQt.w.a.aQtQt.k.A.a.a.B.j.j.B.a.a.A.kQtQt.a.a.wQtQtQt.r.a.a.jQtQt.r.a.a.iQt.r.a.a.z.a.a.a",
".a.a.a.C.a.a.rQt.i.a.a.rQtQt.k.a.a.rQtQtQt.w.a.aQtQt.k.D.a.a.a.E.E.a.a.a.D.kQtQt.a.a.wQtQtQt.r.a.a.kQtQt.r.a.a.iQt.r.a.a.C.a.a.a",
".a.a.q.F.a.a.rQt.i.a.a.rQtQt.i.a.a.rQtQtQt.G.a.aQt.f.y.o.a.a.a.H.H.a.a.a.o.y.fQt.a.a.GQtQtQt.r.a.a.iQtQt.r.a.a.iQt.r.a.a.F.q.a.a",
".a.a.I.u.a.a.rQt.i.a.a.rQtQt.y.a.a.rQtQtQt.J.a.a.f.f.k.o.a.a.a.K.K.a.a.a.o.k.f.f.a.a.JQtQtQt.r.a.a.yQtQt.r.a.a.iQt.r.a.a.u.I.a.a",
".a.a.a.s.a.a.rQt.i.a.a.rQtQt.i.a.a.rQtQtQt.L.a.a.f.f.e.M.a.a.a.t.t.a.a.a.M.e.f.f.a.a.LQtQtQt.r.a.a.iQtQt.r.a.a.iQt.r.a.a.s.a.a.a",
".a.a.q.l.a.a.rQt.i.a.a.rQtQt.k.a.a.rQtQtQt.N.a.a.iQt.i.#.a.a.a.O.O.a.a.a.#.iQt.i.a.a.NQtQtQt.r.a.a.kQtQt.r.a.a.iQt.r.a.a.l.q.a.a",
".a.a.a.P.a.a.rQt.i.a.a.rQtQt.y.a.a.rQtQtQt.Q.a.a.v.f.y.#.a.a.a.R.R.a.a.a.#.y.f.v.a.a.QQtQtQt.r.a.a.yQtQt.r.a.a.iQt.r.a.a.P.a.a.a",
".a.a.I.S.a.a.rQt.i.a.a.rQtQt.c.a.a.rQtQtQt.T.a.a.f.f.k.#.a.a.a.U.U.a.a.a.#.k.f.f.a.a.TQtQtQt.r.a.a.cQtQt.r.a.a.iQt.r.a.a.S.I.a.a",
".a.a.q.V.a.a.a.W.X.a.a.a.Y.Z.0.a.a.a.1.2.3.4.a.a.5.6.7.q.a.a.a.8.8.a.a.a.q.7.6.5.a.a.4.3.2.1.a.a.a.0.Z.Y.a.a.a.X.W.a.a.a.V.q.a.a",
".a.a.a.a.a.a.a.a.a.a.a.a.a.a.a.a.a.a.a.a.a.a.a.a.a.a.a.a.a.a.a.R.R.a.a.a.a.a.a.a.a.a.a.a.a.a.a.a.a.a.a.a.a.a.a.a.a.a.a.a.a.a.a.a",
".a.a.#.a.a.a.a.a.a.a.a.a.a.a.a.a.a.a.a.a.a.a.a.a.a.a.a.a.a.a.a.9.9.a.a.a.a.a.a.a.a.a.a.a.a.a.a.a.a.a.a.a.a.a.a.a.a.a.a.a.a.#.a.a",
".a.a.a#..a.a.r.l##.a.a.r#a#b#c.a.a.r#d#e#f.B.a.a#g#h#i.a.a.a.a.a.a.a.a.a.a#i#h#g.a.a.B#f#e#d.r.a.a#c#b#a.r.a.a##.l.r.a.a#..a.a.a",
".a.a.a#j.a.a.rQt.i.a.a.rQtQt.d.a.a.rQtQtQt#k.a.aQtQt.t.a.a.a.a.a.a.a.a.a.a.tQtQt.a.a#kQtQtQt.r.a.a.dQtQt.r.a.a.iQt.r.a.a#j.a.a.a",
".a.a.a#l.a.a.rQt.i.a.a.rQtQt.O.a.a.rQtQtQt.o.a.aQtQt.e.r.a.a.a.a.a.a.a.a.r.eQtQt.a.a.oQtQtQt.r.a.a.OQtQt.r.a.a.iQt.r.a.a#l.a.a.a",
".a.a.a#m.a.a.rQt.i.a.a.rQtQt#n.a.a.rQtQtQt.o.a.aQtQt.i.m.a.a.a.a.a.a.a.a.m.iQtQt.a.a.oQtQtQt.r.a.a#nQtQt.r.a.a.iQt.r.a.a#m.a.a.a",
".a.a.a#o.a.a.rQt.i.a.a.rQtQt#n.a.a.rQtQtQt.D.a.aQtQt.i.m.a.a.a.a.a.a.a.a.m.iQtQt.a.a.DQtQtQt.r.a.a#nQtQt.r.a.a.iQt.r.a.a#o.a.a.a",
".a.a.a#p.a.a.rQt.i.a.a.rQtQt.O.a.a.rQtQtQt.M.a.aQtQt.j.m.a.a.a.a.a.a.a.a.m.jQtQt.a.a.MQtQtQt.r.a.a.OQtQt.r.a.a.iQt.r.a.a#p.a.a.a",
".a.a.a#q.a.a.rQt.i.a.a.rQtQt.d.a.a.rQtQtQt.h.a.aQtQt.j.I.a.a.a.a.a.a.a.a.I.jQtQt.a.a.hQtQtQt.r.a.a.dQtQt.r.a.a.iQt.r.a.a#q.a.a.a",
".a.a.a.C.a.a.rQt.i.a.a.rQtQt.E.a.a.rQtQtQt.h.a.aQtQt.e.I.a.a.a.a.a.a.a.a.I.eQtQt.a.a.hQtQtQt.r.a.a.EQtQt.r.a.a.iQt.r.a.a.C.a.a.a",
".a.a.a#r.a.a.rQt.i.a.a.rQtQt.R.a.a.rQtQtQt.B.a.aQtQt.d.I.a.a.a.a.a.a.a.a.I.dQtQt.a.a.BQtQtQt.r.a.a.RQtQt.r.a.a.iQt.r.a.a#r.a.a.a",
".a.a.q#s.a.a.rQt.i.a.a.rQtQt#t.a.a.rQtQtQt.B.a.aQt.f.e.I.a.a.a.a.a.a.a.a.I.e.fQt.a.a.BQtQtQt.r.a.a#tQtQt.r.a.a.iQt.r.a.a#s.q.a.a",
".a.a.r#u.a.a.a#v#w.a.a.a#x#y#z.a.a.a#A#B#C.q.a.a#D#E#F.r.a.a.a#G#G.a.a.a.r#F#E#D.a.a.q#C#B#A.a.a.a#z#y#x.a.a.a#w#v.a.a.a#u.r.a.a",
".a.a.a.a.a.a.a.a.a.a.a.a.a.a.a.a.a.a.a.a.a.a.a.a.a.a.a.a.a.a.a.K.K.a.a.a.a.a.a.a.a.a.a.a.a.a.a.a.a.a.a.a.a.a.a.a.a.a.a.a.a.a.a.a",
".a.a.a.a.a.a.a.a.a.a.a.a.a.a.a.a.a.a.a.a.a.a.a.a.a.a.a.a.a.a.a.y.y.a.a.a.a.a.a.a.a.a.a.a.a.a.a.a.a.a.a.a.a.a.a.a.a.a.a.a.a.a.a.a",
".a.a.I#H.a.a.r#l#I.a.a.r#J.C#K.a.a.r#L#M.9.I.a.a#e#N#O.a.a.a.a.t.t.a.a.a.a#O#N#e.a.a.I.9#M#L.r.a.a#K.C#J.r.a.a#I#l.r.a.a#H.I.a.a",
".a.a.m#P.a.a.rQt.i.a.a.rQtQt.y.a.a.rQtQtQt.m.a.aQtQt#Q.a.a.a.a.8.8.a.a.a.a#QQtQt.a.a.mQtQtQt.r.a.a.yQtQt.r.a.a.iQt.r.a.a#P.m.a.a",
".a.a.a#H.a.a.rQt.i.a.a.aQtQt.y.a.a.rQtQtQt.I.a.aQt.f.e.a.a.a.a#R#R.a.a.a.a.e.fQt.a.a.IQtQtQt.r.a.a.yQtQt.a.a.a.iQt.r.a.a#H.a.a.a",
".a.a.a#r.a.a.rQt#n.a.a.aQtQt.y.a.a.aQtQtQt.I.a.aQtQt.v.a.a.a.a.K.K.a.a.a.a.vQtQt.a.a.IQtQtQt.a.a.a.yQtQt.a.a.a#nQt.r.a.a#r.a.a.a",
".a.a.a#S.a.a.aQt.8.a.a.aQtQt.j.a.a.aQtQtQt.r.a.aQtQt.j.a.a.a.a.e.e.a.a.a.a.jQtQt.a.a.rQtQtQt.a.a.a.jQtQt.a.a.a.8Qt.a.a.a#S.a.a.a",
".a.a.a#T.a.a.aQt#U.a.a.aQtQt.i.a.a.aQtQtQt.a.a.aQtQt.y.a.a.a.a.d.d.a.a.a.a.yQtQt.a.a.aQtQtQt.a.a.a.iQtQt.a.a.a#UQt.a.a.a#T.a.a.a",
".a.a.a.S.a.a.aQt#V.a.a.aQtQt.H.a.a.aQtQtQt.a.a.a.f.f.H.a.a.a.a#W#W.a.a.a.a.H.f.f.a.a.aQtQtQt.a.a.a.HQtQt.a.a.a#VQt.a.a.a.S.a.a.a",
".a.a.a.g.#.a.rQt#X.a.a.rQtQt#Y.a.a.aQtQtQt.a.a.a.v.f#Z.a.a.a.a#Y#Y.a.a.a.a#Z.f.v.a.a.aQtQtQt.a.a.a#YQtQt.r.a.a#XQt.r.a.#.g.a.a.a",
".a.a.a.F#0.a.DQt#S.a.a.qQtQt.i.a.a.rQtQtQt.a.a.r#Z.K#Y.a.a.a.rQtQt.r.a.a.a#Y.K#Z.r.a.aQtQtQt.r.a.a.iQtQt.q.a.a#SQt.D.a#0.F.a.a.a"};
