/* XPM */
static char *dummy[]={
"8 8 30 1",
"l c #3a1f21",
"s c #3a2022",
"m c #3b2022",
"t c #3b2123",
"p c #3c2123",
"o c #4d383a",
"r c #4f3b3c",
"x c #4f3b3d",
"v c #513e3f",
"u c #534041",
"f c #6d6162",
"y c #6d6263",
"e c #6e6365",
"j c #706566",
"k c #706667",
"z c #716768",
"n c #716868",
"A c #726869",
"b c #726969",
"B c #72696a",
"# c #73696a",
". c #736a6b",
"w c #736b6b",
"d c #746b6c",
"c c #746c6c",
"g c #746c6d",
"i c #756c6d",
"q c #756d6d",
"h c #756d6e",
"a c #766e6f",
".#abcd.d",
"efghihjk",
"lmhhngol",
"lpgqi.rl",
"stgggdul",
"pv.g.wxl",
"yydgqhzA",
"k#dhBiii"};
