/* XPM */
static char *dummy[]={
"64 64 2 1",
". c None",
"# c #4a4a4a",
"................................................................",
"................................................................",
"................................................................",
"................................................................",
"................................................................",
"................................................................",
"................................................................",
"................................................................",
"................................................................",
"................................................................",
"................................................................",
"................................................................",
"................................................................",
"................................................................",
"................................................................",
"................................................................",
"................................................................",
"................................................................",
"................................................................",
"................................................................",
"................................................................",
"................................................................",
"................................................................",
"................................................................",
"######....................................................######",
"######....................................................######",
"######..####........................................####..######",
"######..####........................................####..######",
"######..####..####............................####..####..######",
"######..####..####...###................###...####..####..######",
"######..####..####...###..#####..#####..###...####..####..######",
"######..####..####...###..#####..#####..###...####..####..######",
"######..####..####...###..#####..#####..###...####..####..######",
"######..####..####...###..#####..#####..###...####..####..######",
"######..####..####...###..#####..#####..###...####..####..######",
"######..####..####...###..#####..#####..###...####..####..######",
"######..####..####...###..#####..#####..###...####..####..######",
"######..####..####...###..############..###...####..####..######",
"######..####..####...###..############..###...####..####..######",
"################################################################",
"################################################################",
"################################################################",
"################################################################",
"######..####..####...###..############..###...####..####..######",
"######..####..####...###..############..###...####..####..######",
"######..####..####...###..############..###...####..####..######",
"######..####..####...###..############..###...####..####..######",
"######..####..####...###..############..###...####..####..######",
"######..####..####...###..############..###...####..####..######",
"######..####..####...###..############..###...####..####..######",
"######..####..####...###..############..###...####..####..######",
"######..####..####...###..############..###...####..####..######",
"################################################################",
"################################################################",
"################################################################",
"################################################################",
"######..####..####...###..############..###...####..####..######",
"######..####..####...###..############..###...####..####..######",
"######..####..####...###..############..###...####..####..######",
"######..####..####...###..############..###...####..####..######",
"######..####..####...###..############..###...####..####..######",
"######..####..####...###..############..###...####..####..######",
"######..####..####...###..############..###...####..####..######",
"######..####..####...###..#####..#####..###...####..####..######"};
