/* XPM */
static char *dummy[]={
"8 8 37 1",
"m c #3a1f21",
"n c #3b2123",
"k c #3c2123",
"l c #3c2224",
"E c #3e2426",
"i c #3e2527",
"s c #3f2527",
"B c #402829",
"C c #41282a",
"D c #422a2b",
"j c #432b2c",
"y c #432b2d",
"x c #483133",
"t c #4f3b3c",
"r c #503c3d",
"z c #675a5b",
"w c #695d5e",
"F c #6b5f60",
"b c #6b6061",
"G c #6c6162",
"I c #6c6263",
"A c #6e6364",
"h c #6e6365",
"o c #6f6465",
"v c #706566",
"g c #706667",
"p c #716667",
"d c #716768",
"f c #726667",
"u c #726768",
"H c #726869",
"q c #72696a",
"c c #73696a",
". c #736a6b",
"e c #746a6b",
"a c #746b6c",
"# c #756c6d",
".######a",
"bcddefgd",
"hijklmno",
"pmqrstmu",
"vmwxyzmA",
"okBCDEsF",
"pGoH.HvI",
"#######."};
