/* XPM */
static char *dummy[]={
"64 64 47 1",
". c None",
"i c None",
"f c #4a4a4a",
"n c #4a4a4a",
"w c #4a4a4a",
"G c #4a4a4a",
"Q c #4a4a4a",
"e c #4a4a4a",
"c c #4a4a4a",
"d c #4a4a4a",
"S c #4a4a4a",
"P c #4a4a4a",
"y c #4a4a4a",
"x c #4a4a4a",
"j c #4a4a4a",
"g c #4a4a4a",
"O c #4a4a4a",
"o c #4a4a4a",
"q c #4a4a4a",
"K c #4a4a4a",
"N c #4a4a4a",
"r c #4a4a4a",
"E c #4a4a4a",
"M c #4a4a4a",
"J c #4a4a4a",
"D c #4a4a4a",
"A c #4a4a4a",
"C c #4a4a4a",
"F c #4a4a4a",
"s c #4a4a4a",
"u c #4a4a4a",
"t c #4a4a4a",
"H c #4a4a4a",
"I c #4a4a4a",
"L c #4a4a4a",
"z c #4a4a4a",
"m c #4a4a4a",
"b c #4a4a4a",
"R c #4a4a4a",
"h c #4a4a4a",
"B c #4a4a4a",
"# c #4a4a4a",
"k c #4a4a4a",
"v c #4a4a4a",
"p c #4a4a4a",
"l c #4a4a4a",
"a c #4a4a4a",
"................................................................",
"................................................................",
"................................................................",
"................................................................",
"................................................................",
"................................................................",
"................................................................",
"................................................................",
"................................................................",
"................................................................",
"................................................................",
"................................................................",
"................................................................",
"................................................................",
"................................................................",
"................................................................",
"................................................................",
"................................................................",
"................................................................",
"................................................................",
"................................................................",
"................................................................",
"................................................................",
"................................................................",
"#ab..........................................................ba#",
"aaacdef..................................................fedcaaa",
"aaag#ah..fii........................................iif..ha#gaaa",
"aaajkaalmn............................................nmlaakjaaa",
"aaaopaaal..............................................laaapoaaa",
"aa#qaaaah..............................................haaaaq#aa",
"aapraaaah..............................................haaaarpaa",
"aaasaaaah..............................................haaaasaaa",
"aaataaaah..............................................haaaataaa",
"aapuaaaahf............................................fhaaaaupaa",
"aavraaaahf............................................fhaaaarvaa",
"aaaqaaaahn............................................nhaaaaqaaa",
"aapjaaaahw............................................whaaaajpaa",
"aaaxaaaahw............................................whaaaaxaaa",
"aavyaaaahn............................................nhaaaayvaa",
"aapzaaaa#f............................................f#aaaazpaa",
"aaaaaaaa#..............................................#aaaaaaaa",
"aa#aaaaa#..............................................#aaaaa#aa",
"aaaAaaaaB..............................................BaaaaAaaa",
"aaaCaaaahf............................................fhaaaaCaaa",
"aaaDaaaahf............................................fhaaaaDaaa",
"aaaEaaaahw............................................whaaaaEaaa",
"aaaFaaaahG............................................GhaaaaFaaa",
"aaaHaaaahn............................................nhaaaaHaaa",
"aaaIaaaahn............................................nhaaaaIaaa",
"aaataaaahf............................................fhaaaataaa",
"aaaJaaaah..............................................haaaaJaaa",
"aapKaaaah..............................................haaaaKpaa",
"aalLaaaaB..............................................BaaaaLlaa",
"aaaaaaaaB..............................................Baaaaaaaa",
"aaaaaaaaB..............................................Baaaaaaaa",
"aavMaaaah..............................................haaaaMvaa",
"aakNaaaahf............................................fhaaaaNkaa",
"aaaMaaaahf............................................fhaaaaMaaa",
"aaaJaaaahf............................................fhaaaaJaaa",
"aaaOaaaahf............................................fhaaaaOaaa",
"aaaPaaaahf............................................fhaaaaPaaa",
"aaayaaaahn............................................nhaaaayaaa",
"aaag#aaahQ............................................Qhaaa#gaaa",
"aaauRaaaBS............................................SBaaaRuaaa"};
