/* XPM */
static char *dummy[]={
"64 64 195 2",
"aM c #363636",
"aN c #373737",
"aO c #383838",
"Qt c #393939",
".# c #3a3a3a",
".a c #3b3b3b",
".d c #3c3c3c",
".c c #3d3d3d",
".e c #3e3e3e",
".B c #3f3f3f",
".b c #404040",
".g c #414141",
".f c #424242",
".p c #434343",
".F c #444444",
".k c #454545",
".o c #464646",
".6 c #474747",
"#m c #484848",
"#O c #494949",
".t c #4a4a4a",
".h c #4b4b4b",
".2 c #4c4c4c",
".D c #4d4d4d",
".G c #4e4e4e",
".A c #4f4f4f",
".L c #505050",
".z c #515151",
"#G c #525252",
"#L c #535353",
".3 c #545454",
".H c #555555",
".i c #565656",
".S c #575757",
"#P c #585858",
".x c #595959",
".w c #5a5a5a",
".K c #5b5b5b",
"#z c #5c5c5c",
".q c #5d5d5d",
"ae c #5e5e5e",
".r c #5f5f5f",
"#K c #606060",
".j c #616161",
".R c #626262",
"au c #636363",
".y c #646464",
"#s c #656565",
"aB c #666666",
".5 c #676767",
".C c #686868",
"#n c #696969",
".M c #6a6a6a",
".v c #6b6b6b",
"#e c #6c6c6c",
".W c #6d6d6d",
"#x c #6e6e6e",
".O c #6f6f6f",
".Q c #707070",
".I c #717171",
".l c #727272",
"#D c #737373",
".9 c #747474",
".V c #757575",
".X c #767676",
".m c #777777",
".u c #787878",
"#. c #797979",
"#r c #7a7a7a",
".Y c #7b7b7b",
".U c #7c7c7c",
"#g c #7d7d7d",
".s c #7e7e7e",
"#B c #7f7f7f",
"#I c #808080",
"#d c #818181",
".T c #828282",
"an c #838383",
"#V c #848484",
"#i c #858585",
".E c #868686",
".8 c #878787",
"#j c #888888",
".1 c #898989",
"#b c #8a8a8a",
"#v c #8b8b8b",
"#a c #8c8c8c",
".4 c #8d8d8d",
".N c #8e8e8e",
"al c #8f8f8f",
"#c c #909090",
"#9 c #919191",
"#E c #929292",
"aA c #939393",
".0 c #949494",
"#q c #959595",
"## c #969696",
".7 c #979797",
".J c #989898",
".n c #999999",
"#u c #9a9a9a",
"#y c #9b9b9b",
"#l c #9c9c9c",
".P c #9d9d9d",
"#T c #9e9e9e",
"#Q c #9f9f9f",
"#X c #a0a0a0",
"#J c #a1a1a1",
"#Z c #a2a2a2",
"#C c #a3a3a3",
"#3 c #a4a4a4",
"#k c #a5a5a5",
".Z c #a6a6a6",
"#p c #a7a7a7",
"#W c #a8a8a8",
"#h c #a9a9a9",
"az c #aaaaaa",
"#w c #ababab",
"#o c #acacac",
"#S c #adadad",
"#A c #aeaeae",
"#f c #afafaf",
"#Y c #b0b0b0",
"ad c #b1b1b1",
"#R c #b2b2b2",
"#H c #b3b3b3",
"#7 c #b4b4b4",
"#F c #b5b5b5",
"#t c #b6b6b6",
"a. c #b7b7b7",
"#0 c #b8b8b8",
"a# c #b9b9b9",
"#8 c #bababa",
"ak c #bbbbbb",
"#6 c #bcbcbc",
"#M c #bdbdbd",
"am c #bebebe",
"#N c #bfbfbf",
"#4 c #c0c0c0",
"ai c #c1c1c1",
"#1 c #c2c2c2",
"#U c #c3c3c3",
"#2 c #c4c4c4",
"ao c #c5c5c5",
"aj c #c6c6c6",
"ah c #c7c7c7",
"as c #c8c8c8",
"ap c #c9c9c9",
"ac c #cacaca",
"ay c #cbcbcb",
"av c #cccccc",
"at c #cdcdcd",
"ax c #cecece",
"aa c #cfcfcf",
"aw c #d0d0d0",
"aq c #d1d1d1",
"ar c #d2d2d2",
"ag c #d3d3d3",
"af c #d4d4d4",
"#5 c #d5d5d5",
"aD c #d6d6d6",
"aC c #d7d7d7",
"aE c #d8d8d8",
"aF c #d9d9d9",
"ab c #dadada",
"aG c #dbdbdb",
"aH c #dcdcdc",
"aI c #dddddd",
"aJ c #dedede",
"aK c #dfdfdf",
"aP c #e0e0e0",
"aL c #e1e1e1",
"aQ c #e2e2e2",
"aR c #e3e3e3",
"aS c #e5e5e5",
"aT c #e6e6e6",
"aV c #e7e7e7",
"aW c #e8e8e8",
"aU c #e9e9e9",
"a0 c #eaeaea",
"aX c #efefef",
"aZ c #f0f0f0",
"aY c #f1f1f1",
"a3 c #f2f2f2",
"ba c #f3f3f3",
"a1 c #f5f5f5",
"a8 c #f6f6f6",
"b. c #f7f7f7",
"b# c #f8f8f8",
"a2 c #f9f9f9",
"a4 c #fafafa",
"a7 c #fbfbfb",
"a6 c #fcfcfc",
"a5 c #fdfdfd",
"a9 c #fefefe",
"Qt.#.#.#.a.#.#.#.#.a.b.b.c.b.c.a.d.a.#.#.#.#.d.#.a.#.#.a.a.a.a.a.a.a.a.a.a.a.a.d.a.#.#.a.#.a.d.a.#.a.a.#.#.a.a.#.#.a.e.f.e.g.c.#",
".g.h.i.j.k.#.l.m.n.o.p.q.r.s.o.t.u.v.p.#.w.h.x.c.b.y.z.c.d.x.A.B.#.f.C.g.d.D.E.z.F.d.G.j.H.B.a.I.J.s.h.o.K.L.z.e.a.aQt.#.#.a.#.F",
".g.M.N.O.B.a.O.P.Q.B.a.R.r.S.d.f.T.U.G.a.V.W.R.#.g.X.Y.e.a.Z.0.r.a.A.1.2.d.3.4.5.6.#.H.7.y.p.a.8.V.9.b.a.9#.##.wQt.A.9.p.a.t.5.w",
".b.v#a#b.a.##c#d.O.f.##e.W.L.a.f.N.s.G.a.x#f#g.a.b#e#h.e.a#g#i.y.a.2#j.w.a.k.O.V.w.a.y#d#..c.d.O#k#l#m.a#n#o#f.q.#.L#i.t.#.H#p.q",
".c.s#q#r.d.a.T.1.N.o.a.l#r#e.#.g.V.n.2.a#s#t#u.a.g.U#v.b.d.s#a.3.d.x#c.M.a.t#w#i#x.a.r.T#d.B.a#c.1#y#z.a.Y#A#c#B.a.t#C.x.##z#A#D",
".a#d#u.n.c.a#l#E#p.k.#.V#t.Y.a.p#b#F#G.d.C#H##.a.b#I.0.k.a#l#y.r.a#G.4.4.a.o#J#v#K.a#L#o#M.F.d.N#q#y#z.a.u#N#H#p.##O#f#P.##z#o.Q",
".##i.J#q.e.##Q#R#S.p.a#I#y.m.a.k.0#B.R.d.A.8##.a.h#T#U.h.a#V#W.Y.a.2###d.d#O#X#c#n.d#O#A#Y.2.d.1#Z#N.j.d.O#0#M#j.#.p#w.K.a#s#o.R",
".#.T#1#y.c.##f#F#2.o.a.1.n#..a.t#M#u#..d.H#u#T.d.p#p#h#G.a#d#A#j.a.p#N#y.a.A#W#3#b.d.t#T.P.i.d.U#A#M.X.a#K#4#5#R.#.F#6#G.#.X#t#G",
"Qt.X#7#S.cQt#p#N#f.6.##u#Q.1.a.6#N#S.m.d.i#E#p.e.a#F#Y#L.a.T#F#8.d.c#p#9.a.2#ta..J.d.h#t#M.S.d#ga##0#B.a#Kaaab#Y.#.kac.t.##a#2.p",
"Qt.U#7#A.F.#.P#2#t.6.##Za..J.a#m#0#F.m.a.wa.ad.B.a#p#A.t.d.Na.#R.k.a#h.1.d.2a#a..n.d.h#R#A.y.a.C#7#F#I.#aeafac#Z.#.hag.h.#.0ah.p",
".##aai#6.k.##kajak.B.a#Aakal.a.A#Mak#g.a#K#Aam.B.a#4#1.S.aana##6.A.a.J##.d.Aao#6#Z.d.2#1#R#I.a.iap#U#d.#.jahaq#q.##Paa.q.#.4ar.#",
".a#was#N.k.##watas.e.#aiai#a.a.3#U#2#d.a.jam#N.B.a#2as#P.a#v#4ai#G.a.P#Y.a.p#U#U#W.a.Dah#1#c.a.i#1aman.#auavat#j.#aeag#z.#.T#5.a",
".Aatawax.o.##Yaxas.g.##4ap#c.a.iaj#1#V.a.R#4#f.a.pacax#P.a#baham.L.a#Q#2.c.aaoat#f.a.haaaj#g.aaeay#U#9.##Law#5#v.#.raq.W.#.Ua#.#",
".h#o#5aq.6.##watat.q.pakar.J.a#Gasat.8.a.3as#3.a.hahac#n.a.mas#N.z.d#vaw#m.aazay#2#K#x#i.O.C.t.A.z.L.3.a.k.W.Qae.d.iaA.K.#.W#7.a",
".a.a.f.G.k.B.b.b.B.a.a.c.B.C.k.H.1.T.W.d.F.w.H.b.k.v#e.3.c.i.r.S.F.e#O.B.c.d.g.d.d.a.a.#.a.a.a.a.#.a.#.#.aQt.#.a.a.a.#.#Qt.#.c.d",
".e.B.#.#.d.a.#.#.a.a.e.#.#.a.#Qt.a.a.#.#.#.#.a.a.a.a.a.#.a.a.a.#.#.a.a.a.a.d.a.#.e.e.p#L.w.K.x.RaBau.i#L#L.h#O#O.F.p.e.e.c.d.a.a",
".y#v#V#..l#IaA.0.n.n#p#u.v.z#O.o.6#m#m.3ae#s.u.Y#e.K#z.q.jaB#x.X#V#i.E.J#u.P#l#p#C#X#Z.Z#Y#W#3.J#qaA#c#E.P.7#q#Ean#B.U#..m.X#n#z",
"ac#2aoasahajacavajap#8axarawaaavasahahacaj#A#N#U#N#8adazaz#fa##7#8#1#2ajaj#Uai#1aiahajasayapahahacakavaCaway#4aiaxayapacasasapag",
"#5agaDaCafaDaD#5afaE#0agabaFabaCafaf#5aEaCaqawaqaaaa#M#h#Za.aoataaafagaqagafarawaqarafaCaEaD#5#5#5ataCaGabaq#6ai#5abaFaDaFaFagaC",
"ar#5af#5ar#5afaravaEataCaGaFaF#5awaraCaFaCagaf#5agagah#p#Ta#atawaxaCaDagafagaragaD#5aqaDabab#5araraCaFaHaFaFaFarafaDaCaDaEaD#5#5",
"aqafaradafaDaDaC#5aFaHaGabaC#5agarag#5agafafaC#5ararac#6#MacafafagafaD#5afagaqar#5#5aoagaCaCafagagaf#5abaHaHaEaFaCaD#5afafaiapar",
"aj#5ax#6aCaEaFaGaGaIabaa#5afawarafafaC#UaraDaCaraaar#5aragaCaEagagagagagagagarawarafaraf#5aCagagar#5aragafaDawababaFaCavawavaaaa",
"aw#5aCaDabaFabaHaHaJaEagagaqaraf#5#5aCacaw#5awas#5af#5aD#UaCaCaC#5#5#5afagagagaaaqagayayaFaE#5afaqafagarajataCaJaKaHaFaqavagaxax",
"#5#5aEabaHabaCaGaIaHab#5#5afafafaCaCaEaFafaraoarawaqawagagagagagagagagagagagagagafafaq#5aFab#5#5ahaf#5af#1ahaIaLaGafaEaCar#U#3#R",
"#5#5aEabaFaCaCaCabaEaDaCaCaC#5#5aCaGaFaEaEar#h#NaCaD#5agagagagagagagagagagagagagagagagagaDaFagaf#5aDaFabaDaCaHaIaw#FaraDar#0#X#o",
"aCaDabaFabaGaEaEaEaCawaqafaEaD#5aFaHaGabaFaFarafagagagagagagagagagagagagagagagagagagagagafaw#Aao#5aCaHaCaFabaGaGafasaDaDaxa.#R#7",
"aG#MaFaFaIaIaEaGaEaDaD#5aCaFabababaGaG#5afagaCagagagagagagaoaoaoagagagagagagafafafafagagagag#6ataaaiagaFagaDaEabaE#5aEaDarai#t#F",
"aIaHaHaHababaIaHaHaFaFagaCaHaFaEaDaDaEaaarag#5#A.x.L.A.z.daMaNaO.d.d.p.g.#aOaNaNaNQt#nawapagaFaCaDafafaD#tavaFaGaCaDagararaq#2#2",
"aJaPaPaPabaIaKaJaKaHaDac#4aFaxafav#Majat#7asaa.HaMaMaMaMaNaOQt.#.a.d.a.#.#aOaOaMaMaMaMaNaDarabagagagagagapaxagaFaDaC#5arawaaatav",
"aJaHaIaHaQaRaLaPaq#2atayaFaf#7aaad#T#X.J.P#paxaBaMaMaMaOQt.a.d.b.f.p.p.g.B.d.#aOaMaMaMaNabafafag#5aCaD#1#3#oaCaIaFaC#5#Uasaxavaj",
"ajaEaHaRaPaLaEaQafav#wataDaDayay.Z#Tal#j.Ja#aq.yaMaM#g#E.U#B#E#q##.7#h#r.v#z#P.ran.waMaMaDagagag#5afaw#3#C#kavaHaGataFagaaavaa#8",
"#2aFabaSaDaDaQab#Nacataqag#5awaj#W#X.1#3#H#F#8#GaMaN#q#W#w#Aad#7#ta.#t#F#H#Y#Saz#W.paMaM#UazakafaDaEas#f#Q#HapaDaDaEabaCaaacacap",
"axaxaEaLahatafac#H#Nafaqawawaxav#0az#Q#Aamagaq.FaMaO#T#w#A#Ha.ak#Mamam#M#8#t#R#S#h.daNaO#5ar#oaCaEagai#6#6axaqaEaFaEabar#Famaoaj",
"aEaEaGaPaEabaPap#R#Hagaqaaaaaaaiam#Y#k#Wasagaf.BaO.#az#A#H#S#H#8#U#Uahao#N#Ma.#R#S.eaOaM#5aH#2axabav#Q.n#6a.aoaDaDaEafa.#f#Rahaj",
"aGaIaRaSaRabaKaf#f#Yacayavaaag#2#1a.#W#wayagaf.2aO.c#3ad.l.Q.s#j.4#9#Eal.E#g.9a.#f.k.#aNawaHaw#MaE#1#p#Z#0#1apaxaDaCas#tadazaoas",
"aIaRaEawaSafaIaba##7#1atayayawah#U#M#o#h#Magaf.3Qt.p#A#F#B#g#v#q#T#Z#J#l###v.8#6#F.R.eaOabaH#5#Faw#4#F#Haoac#Uadasavapa##S#o#Ray",
"aHaJ#A#waKaPaFaw#U#2amaaayayamaj#6#X#f#pavaDaC.D.#.k#Aa#.8.1#Z#t#M#1#2a#ad.J.N#1#0#e.gQtaHaH#5#6av#J#4avawaw#2#A#1#taras#Uagafav",
"#1ar#o#YaGaHaDat#1ak.Zapacao#F#F#7##az#4ahaEaw.F.a.o#R#6###E#FaPaTaUaVaQaH.ZaA#8#6ae.F.aaGaH#5atav#f#1apaxaaap#Naxapasajapawaaaa",
"#WataxaHaHaFaDataj#p#w#t#fa##f#T.Z###k##.1#la#.f.d#O#F#N#y#lahaWaXaYaZa0aJ#o.Pap#N#n.6.dacaEaaayat#4#F#Rawat#3.P#Rasajasao#5aC#5",
"#M#5araJaHaEawap#S###0#A#w#o#S#Y#7#3.Palal#7#M.h.d.3#tai#y#CaraXa1a2a2aYaI#R#waw#1#..t.bayat#Zavas#o#X#paqas#J.Jakaj#1#p#waHaLaI",
"aLaf#5aIaCagag#H.P#h#6#o#Z.Zad#0#0azad#u#X#S#7.h.d#La.#1#uazaba3a4a5a5a2aI#F#Hawao.T.h.gatav#y#w#y#t#4#Mawaa#Y.Z#2ax#6#J#0araSaS",
"abaGaGaFagay#8ad#8am#2#p#Qadama#ak#0#8akam#8#8#m.a.Ha.#U.J#SaQa1a6a5a5a7aPa.#taqao#b.G.bakap.Z.s#ba#ajavawav#4#2afaF#UayaxaDaGaH",
"#1#0#2ay#1#0asajaya#ahay#f#S#6#7ai#1#6#8a#a#a#.L.#.Aa.#U###AaLa8a5a9a9a7aC#t#7arah#V.G.ba##1#8#V.n#Yaqaqaa#Ua#ajaDaEaCatasaqas#5",
"aF.Z#W#H#f#1aaafag#1acacad#Y#8#H#Yamah#F#A#Ha..q.#.2#t#1###oaPb.a5a9a9a7ag#t#waqao.9.G#m#2avak#yal#0#2aqav#2#4ay#5#5aa#M#Uag#Yaj",
"#1#oa.#U#Ma.#0asaq#4asava.apa##y#7#t#N#wa#ad#M.XQt#O#F#1aA#WaIa8a5a9a9a4aq#H#pat#2.v.D.Lao#4#U#Z#E#Nay#U#H#Nao#5ac#Uaoaoavapagat",
"aqacap#1ay#6ad#RaraDaf#Japaj#U#f#7#tad#0#8#8ak.IQt#m#H#1#E#Jafa1a6a5a5b#aq#S#kay#1aB.h#P###k#S#i.8#u#u.na##A#o#Uajayasapao#8#fax",
"#Ha##M#o#N#y#3#7aDaa#S#w#fa#atam#2#Mam#1aka#a#.KQt.6ad#4#v.7ahaXa2a6a4aXav.Z#Tas#N.j#m.A#a#E#Q#d#E.na.#0#0#h#0#S#Sa.ai#M#U#3azao",
"#6#N#4#U#Y###3#Savaj#1as#U#1aj.0#F#R#M#4a##7#N.haO.f#f#tan#ba#aTaXbaaXaS#M#y.0aoak.x.F.h#v#X#w.J.J#F#M#N#A#Y#o#Z.n#E#Saz#4#1#Uas",
"#4am#o#4ad#y#Q#Fahaiai#N#Naz#W#X#W#q#U#N#W#M#8.LaO.g#S#H.u.U#WaGaQaSaQaH#t#c#v#4a..3.g#Oakao#Y#w#k#6#4#8#H#A#o#k#J#T#Q#w#Rak#2ax",
".O#Fa#ay#6az#S#2ah#w.1#Z#o#u.J#A.J.E#b#i#d.Y#y.taN.kaz#Y#s.W#XavafaD#5ax#H#danak#H#m.c.pamaoawagac.Ja##M#b#t#0aza.#0#H#F#Uajaj.V",
".##O.8ayaj#7aa.1.GQtQtaO.x#l.Pa#.2.#.#.#.#.#.e#OaM.f#h#o.iae#e#.#j.N.4an.U#D#g#F#f.f.a.p#4acam.l.6.D#Na.a.aca.#Zai#H#Yah#8#I#m.a",
".B.#.a#aaw#2ax.FQt.B.zQt.d#q#pah.B.##G.x#x.g.#.#aM.g#paz.W#K.M#s#e.Q.I.O#x.5.X#Y#w.caO.#ad#r.B.#QtQt.wakamaj#d.G.q#Vai#2an.B.#.c",
"#H.R.#.B.C.y.V.#.pak.sQt.d#3#l#h.b.a.Oatau.h.caNaM.#.Z#paz#S#Y#w#T#T#J#Y#f.Z#p#w#W.#aNaN.BQt.#.S#q.daO.jam.l.p.#.#Qt.G#r.F.a.a.R",
"amam#O.#.#Qt.#.#.c#H.LQtQtQt.#Qt.p.#.q.5.L.Z.iaNaM.f#k.Z#p#haz#o#A#W#A#f.Z.Z.Z#W.Z.#aMaO.#Qt#c.s#JaAQtQt.FQt.#.i.L.gQtQt.#.a#Tat",
".Z#J.k.#au.K.SQt.e.9.#QtQt.f.bQtQt.#.B.s#9#7.9aNaM.f#k#k.Z.Z#X#3#C#W#haz#X#k#J.Z#k.aaM.F.eQt.9.K.EaR#EQtQt.d#dar#q#C.fQt.q#4ayaw",
"#c.7.k.#aA#Z#h.aQt.3.#.f#S#H.L#u##.#Qt#3aCaaaraOaM.B#k#k.Z#u.2#L.S.i.i.x.q.Z#J#k#k.taM.FaeQt#m#.#sabam.2Qt.2ax#F.m.a.KQt.Xaoaaay",
"#Z#l.d.##6#1aa.d.a.#.a.#.h#N#7av.t.#Qt#B.N.n.9aNaM.p.Z#k.5.H#G.z.m#C#a.L#G#I.V#k#k.waM.##eQt.#.w#3ag#Uaq.G.#.Vaxao.R.b.#Qt.x.u#0",
".g.p.d.tag.4aA.#.B.B.#.#.#.IapaD.eQt.#.#.#.#.FaMaM.o.Z.Z.D.t.U#X.Z.T.Z.Jal.2.k#k#k.raMaM.#.aQt.#.u#h#i.G.#.#.##W#S#4am#z.a.#.#.p",
"Qt.#.#Qt.Sax.iQt#Vak#R#VQt.v.3aq.a.a.#.t#O.a.d.gaM.o.Z#k.2.2#k.Z#n.k#x.Z#k.z.2#k#3.LaMaM#L.#.#.#.b#KQtaOQt.p.##P.u.#QtQtQtQt.#Qt",
"#Iaz.UQtQt#h.#.d.0#4#r.9Qt.d.p.y.#.a.H.aaF#P.#.#aM#m.Z.Z.h#O#I#3#d.i.8#C#r.2.k.Z.Z.6aMaOad.1.B.#QtaOaO.m.v#J.B.#.k.#aOQt.a#D.X#7",
"#Qaw.Q#O.##O.##Gab#oaK.HQtaOaOQtQt.baB#taG#a.#QtaM#O.Z#3.z.k#G#P#q.ZaA.H#G#O.k#k.Z.6aMQtahafaG.AQt.f.7ai#N.U.Y.#.#.eaO.a#Gafagax",
"aDaJ#U#j.#.#Qt#f#t#K.IQtQtaB#d.FQt.o#8aEaw.f.oaNaM.F#k#k.Z#I.Lae#G.K.M.3.G.M#3.Z#h.caMQt.A.S#U#eQt.r#T.Jajad.D.#.o#I.BQt.f#2aw.1",
"azai#4ao.i.#.e#M.J#O#sQt#samahauQt.Mamaj.KaJ.KaNaM.F#k#p.Z#k#k#Z#T#k.Z#Z#T#p.Z.Z#h.caMaO.r.X#TaB.#.t.5#.aq#LQt.e.W#E.MQt.p#1ay#4",
".dQt.#.#.#.#.a.#.a.#Qt.d.p.p.F.f.c.i#D#x#D#L.faNaM.F#k#k#k#k#k.Z.Z.Z.Z.Z.Z.Z#k#k#k.caM.b.j.t.F#G.C.R#L#n.W.B.#.6.z.z#O.d.#.a.p.G"};
