/* XPM */
static char *f32df93a4ade4c06c86432f1617816d9wyc51htHJurAcXwt[] = {
/* columns rows colors chars-per-pixel */
"64 64 2 1 ",
"  c #F2881D",
". c #FCFFB6",
/* pixels */
"................................................................",
"................................................................",
"................................................................",
"................................................................",
".....................                                  .........",
".....................                                  .........",
".....................                                  .........",
".....................                                  .........",
".....................                                  .........",
".....................                                  .........",
".....................      .....................................",
".....................      .....................................",
".....................      .....................................",
".....................      .....................................",
".....................      .....................................",
".....................      .....................................",
".....................      .....................................",
".....................      .....................................",
".....................      .....................................",
".....................      .....................................",
".....................      .....................................",
".....................      .....................................",
".....................      .....................................",
".....................      .....................................",
".....................      .....................................",
".....................      .....................................",
".....................      .....................................",
".....................                      .....................",
".....................                      .....................",
".....................                      .....................",
".....................                      .....................",
".....................                      .....................",
".....................                      .....................",
".....................      .....................................",
".....................      .....................................",
".....................      .....................................",
".....................      .....................................",
".....................      .....................................",
".....................      .....................................",
".....................      .....................................",
".....................      .....................................",
".....................      .....................................",
".....................      .....................................",
".....................      .....................................",
".....................      .....................................",
".....................      .....................................",
".....................      .....................................",
".....................      .....................................",
".....................      .....................................",
".....................      .....................................",
".....................      .....................................",
".....................      .....................................",
".....................      .....................................",
".....................      .....................................",
".....................                                ...........",
".....................                                ...........",
".....................                                ...........",
".....................                                ...........",
".....................                                ...........",
".....................                                ...........",
"................................................................",
"................................................................",
"................................................................",
"................................................................"
};
