/* XPM */
static char *dummy[]={
"8 8 22 1",
"f c #746d6d",
"i c #716868",
"g c #746c6c",
"t c #787272",
"b c #726969",
"r c #72696a",
"k c #726a6a",
"m c #736a6b",
"j c #736b6b",
"n c #736b6c",
"o c #746b6c",
"c c #746c6c",
"h c #746c6d",
"d c #756c6d",
"l c #756d6d",
"e c #756d6e",
"p c #756e6e",
"a c #767070",
"s c #777171",
"q c #787373",
". c #797474",
"# c #7a7575",
".#abcdeb",
"fghedece",
"hheeihjk",
"dehldmnh",
"emhhhomh",
"domhmjhk",
"ohdhlp#q",
"mceercst"};
