/* XPM */
static char *dummy[]={
"64 64 513 2",
"Qt c None",
"br c #363636",
"an c #ffffff",
"bc c #363636",
"a1 c #808080",
"bN c #aaaaaa",
"a9 c #808080",
"bk c #363636",
"ff c #808080",
"dV c #929292",
"d6 c #808080",
"fA c #363636",
"ej c #8b8b8b",
"by c #808080",
"eE c #898989",
"#J c #363636",
"bj c #888888",
"dA c #8f8f8f",
"f7 c #363636",
"aD c #969696",
"aQ c #8e8e8e",
"g. c #363636",
"ax c #8c8c8c",
"bl c #9b9b9b",
"fb c #8a8a8a",
"d8 c #363636",
"aC c #939393",
"bd c #9d9d9d",
"d7 c #363636",
"ck c #363636",
"bG c #929292",
"bF c #919191",
"ag c #3b3b3b",
"b9 c #363636",
"cD c #363636",
"am c #424242",
"bs c #8e8e8e",
"dB c #909090",
"fe c #8c8c8c",
"ek c #363636",
"bq c #919191",
".6 c #363636",
"a0 c #8d8d8d",
"dD c #8d8d8d",
"fg c #8c8c8c",
".A c #363636",
"bO c #393939",
"dC c #8e8e8e",
"dU c #363636",
"a2 c #464646",
"#d c #363636",
"bV c #444444",
"c3 c #363636",
".a c #363636",
"b3 c #363636",
"bz c #969696",
"cF c #363636",
"f4 c #363636",
"eN c #3e3e3e",
"e8 c #434343",
"f6 c #363636",
"cE c #363636",
"fa c #373737",
"a8 c #5b5b5b",
"bM c #9c9c9c",
"dR c #363636",
"df c #363636",
"cP c #363636",
"aP c #909090",
"e2 c #464646",
"eF c #555555",
".# c #363636",
"b. c #4e4e4e",
"fu c #4f4f4f",
"fp c #3a3a3a",
"fq c #3c3c3c",
"bi c #8e8e8e",
"dT c #363636",
"eV c #373737",
"em c #363636",
"eO c #3a3a3a",
"eu c #363636",
"#R c #3e3e3e",
"bx c #9e9e9e",
"e7 c #3b3b3b",
"dQ c #3f3f3f",
"bb c #575757",
"ay c #525252",
"e9 c #6e6e6e",
"fZ c #363636",
"fM c #3c3c3c",
"f9 c #363636",
".P c #363636",
"de c #363636",
"fk c #616161",
"fS c #363636",
".o c #4d4d4d",
"f8 c #363636",
".b c #363636",
"bP c #414141",
"fF c #454545",
"el c #363636",
"fT c #363636",
"cG c #363636",
"dE c #505050",
"bE c #9a9a9a",
"d9 c #363636",
".j c #363636",
"bW c #363636",
"b2 c #373737",
"fQ c #363636",
"bU c #4b4b4b",
"bp c #989898",
".n c #3a3a3a",
"f0 c #363636",
"bm c #797979",
"e1 c #363636",
"f2 c #363636",
"e6 c #585858",
"aB c #5f5f5f",
"aV c #505050",
"#D c #6a6a6a",
"fJ c #363636",
"eY c #393939",
"fN c #363636",
"dg c #363636",
"cl c #363636",
"fE c #444444",
"e. c #363636",
"f5 c #363636",
"be c #5c5c5c",
".p c #4b4b4b",
"a. c #363636",
"fH c #363636",
"c1 c #363636",
"dv c #363636",
"dc c #363636",
"fR c #363636",
"dw c #363636",
"fI c #363636",
"fv c #4d4d4d",
"bH c #6d6d6d",
"dx c #363636",
"fV c #363636",
"ak c #363636",
"dh c #383838",
"cf c #363636",
".s c #363636",
"fO c #363636",
".m c #373737",
"dl c #676767",
".7 c #363636",
"bQ c #4c4c4c",
"#Q c #979797",
"fY c #363636",
"fC c #585858",
"di c #3e3e3e",
"dS c #363636",
"fx c #545454",
".K c #363636",
"fP c #363636",
"#L c #363636",
"#8 c #5f5f5f",
"f1 c #363636",
".q c #404040",
".f c #363636",
"eM c #3a3a3a",
"e# c #363636",
"aU c #767676",
"#S c #3c3c3c",
".k c #363636",
"bX c #363636",
"dW c #3b3b3b",
"aR c #404040",
"cR c #363636",
"#4 c #373737",
"bt c #535353",
"c2 c #363636",
"fU c #363636",
"f3 c #363636",
"#f c #373737",
"b1 c #383838",
"dj c #434343",
".t c #464646",
"fy c #393939",
"fX c #363636",
".h c #363636",
"eG c #3f3f3f",
"eq c #757575",
"aK c #262626",
"al c #363636",
"fB c #393939",
"fj c #3c3c3c",
"er c #6b6b6b",
"fW c #363636",
"eU c #383838",
"#3 c #3d3d3d",
"bL c #7d7d7d",
".5 c #363636",
"aj c #373737",
"ao c #3b3b3b",
"dd c #363636",
"dk c #494949",
"bo c #949494",
"#X c #363636",
"eP c #393939",
".X c #363636",
"aw c #3c3c3c",
"aZ c #444444",
"cN c #828282",
"#9 c #3c3c3c",
"a5 c #4b4b4b",
"bh c #686868",
"eR c #7e7e7e",
"aJ c #292929",
"bT c #5f5f5f",
".v c #2c2c2c",
".Y c #363636",
"es c #616161",
".u c #2d2d2d",
"fK c #363636",
"#5 c #373737",
"db c #3c3c3c",
"cZ c #3e3e3e",
"ef c #585858",
"ee c #5f5f5f",
".z c #616161",
"cQ c #363636",
".w c #353535",
"fz c #363636",
"fL c #383838",
"at c #424242",
"dz c #363636",
"aW c #515151",
"#l c #363636",
"bw c #666666",
".c c #363636",
".r c #373737",
"eg c #7b7b7b",
".l c #363636",
"fG c #3a3a3a",
"eb c #5d5d5d",
"c4 c #363636",
"eW c #373737",
"#7 c #454545",
"fo c #8f8f8f",
"#n c #363636",
"as c #373737",
"fd c #3e3e3e",
"dy c #363636",
"ae c #383838",
"eo c #686868",
"c9 c #6f6f6f",
"ep c #717171",
"#y c #363636",
"ed c #5c5c5c",
"cM c #aeaeae",
"#e c #363636",
"#r c #838383",
"#z c #363636",
"fh c #424242",
"et c #454545",
".y c #494949",
"#6 c #353535",
"#m c #363636",
"#Z c #373737",
".x c #393939",
"cm c #3c3c3c",
"cX c #3e3e3e",
"ec c #5c5c5c",
"a4 c #5e5e5e",
"eh c #8b8b8b",
"#x c #363636",
"en c #454545",
"fD c #484848",
"c8 c #757575",
"eI c #929292",
"aL c #1d1d1d",
"#I c #363636",
"cS c #414141",
"cH c #494949",
"ar c #595959",
"ey c #797979",
"#w c #363636",
"fw c #474747",
"eK c #999999",
"eJ c #aaaaaa",
"dr c #b7b7b7",
"fr c #b9b9b9",
"dq c #bdbdbd",
"#K c #363636",
"c0 c #373737",
"b# c #3e3e3e",
"ea c #404040",
"#2 c #484848",
"cT c #505050",
"dL c #c0c0c0",
"#H c #363636",
"cY c #3d3d3d",
"a6 c #5e5e5e",
"cC c #a1a1a1",
"cL c #c4c4c4",
"cu c #363636",
"ad c #373737",
"ba c #3f3f3f",
"cv c #474747",
"eH c #4a4a4a",
"ex c #616161",
"d2 c #9e9e9e",
"dM c #c2c2c2",
"#Y c #363636",
"af c #373737",
"eQ c #404040",
"d0 c #4e4e4e",
"ez c #505050",
"eC c #888888",
"#c c #363636",
"eX c #383838",
"#W c #393939",
"c5 c #585858",
"#0 c #595959",
"ds c #b6b6b6",
"cK c #c6c6c6",
"cJ c #d8d8d8",
".e c #363636",
"eT c #373737",
".Q c #444444",
".V c #464646",
"bv c #484848",
"ei c #4e4e4e",
"d1 c #4f4f4f",
"cU c #757575",
"bS c #9a9a9a",
"dK c #b4b4b4",
"dN c #c5c5c5",
".W c #363636",
"a# c #383838",
"a7 c #393939",
"aO c #3a3a3a",
"av c #3f3f3f",
"eS c #434343",
"bC c #454545",
"ew c #494949",
"eL c #4e4e4e",
"da c #4f4f4f",
"eA c #555555",
"#1 c #616161",
"eB c #727272",
"dY c #777777",
"b7 c #9b9b9b",
"aT c #a6a6a6",
"dp c #acacac",
"dt c #bebebe",
"d3 c #cfcfcf",
"cB c #e1e1e1",
"az c #343434",
"ah c #363636",
"aE c #383838",
".E c #393939",
"f. c #3a3a3a",
"bA c #3b3b3b",
"ev c #3f3f3f",
".B c #434343",
"d. c #444444",
"dZ c #4e4e4e",
"cc c #515151",
"bK c #545454",
"dX c #5b5b5b",
"c7 c #626262",
"du c #737373",
"ch c #a8a8a8",
"b6 c #acacac",
"fn c #d8d8d8",
"fs c #d9d9d9",
"dO c #dddddd",
".N c #ededed",
".F c #2e2e2e",
"cW c #343434",
".g c #363636",
"cO c #383838",
"bf c #393939",
"bn c #3a3a3a",
"bD c #3b3b3b",
"#E c #3c3c3c",
"aA c #3d3d3d",
"ac c #3f3f3f",
"#V c #414141",
"bu c #434343",
"dF c #444444",
"d# c #464646",
".L c #474747",
"d5 c #494949",
".J c #4b4b4b",
"cI c #4c4c4c",
"#C c #525252",
"ab c #555555",
"cs c #626262",
"aX c #6a6a6a",
"dP c #747474",
"dG c #a6a6a6",
"dJ c #cacaca",
"#i c #cbcbcb",
"bR c #cdcdcd",
"bZ c #d0d0d0",
"cr c #d5d5d5",
"cA c #eaeaea",
"cy c #ebebeb",
"cz c #eeeeee",
"#T c #2a2a2a",
"aI c #2c2c2c",
"#G c #313131",
"aM c #333333",
".i c #363636",
".G c #373737",
"cw c #383838",
".D c #393939",
"bg c #3a3a3a",
"au c #3b3b3b",
"#M c #3c3c3c",
"ai c #3d3d3d",
"eD c #3f3f3f",
"bJ c #404040",
"aa c #414141",
"cV c #424242",
"bB c #454545",
".C c #464646",
"ct c #474747",
"aY c #484848",
"a3 c #4a4a4a",
".O c #4d4d4d",
".4 c #4f4f4f",
"ap c #505050",
".I c #525252",
"cb c #535353",
".Z c #575757",
"cj c #626262",
"d4 c #646464",
"bI c #676767",
"fi c #6d6d6d",
"ft c #7b7b7b",
"b0 c #949494",
"cd c #959595",
"ca c #989898",
"bY c #9b9b9b",
"f# c #a9a9a9",
"dm c #b0b0b0",
"do c #bebebe",
"c# c #c7c7c7",
"cg c #cdcdcd",
"ci c #d1d1d1",
"dI c #dfdfdf",
"b5 c #eeeeee",
"b8 c #efefef",
"cq c #f0f0f0",
"#N c #1d1d1d",
"#A c #2b2b2b",
"aH c #2d2d2d",
"aG c #2e2e2e",
"#O c #2f2f2f",
"#B c #313131",
"#F c #323232",
"aF c #333333",
"#U c #353535",
".d c #363636",
"#o c #373737",
"#q c #383838",
"#P c #393939",
".0 c #3a3a3a",
"aN c #3b3b3b",
"#p c #3c3c3c",
"#s c #3d3d3d",
"co c #3e3e3e",
"#u c #3f3f3f",
"#b c #404040",
"#k c #424242",
"aq c #434343",
".H c #444444",
"cx c #464646",
".T c #494949",
"cn c #4a4a4a",
".8 c #4b4b4b",
"c. c #4e4e4e",
"b4 c #4f4f4f",
"#v c #505050",
".M c #515151",
".R c #525252",
"dH c #595959",
".2 c #5b5b5b",
"e4 c #5d5d5d",
"eZ c #606060",
"fm c #626262",
".9 c #656565",
"#t c #666666",
"## c #686868",
"aS c #696969",
"#g c #6e6e6e",
"fc c #6f6f6f",
"e0 c #787878",
"c6 c #7a7a7a",
"fl c #7c7c7c",
"#a c #7d7d7d",
".3 c #808080",
"e5 c #838383",
"cp c #898989",
".S c #9e9e9e",
"e3 c #acacac",
"ce c #cccccc",
".U c #cecece",
"dn c #d2d2d2",
"#h c #d7d7d7",
".1 c #e3e3e3",
"#j c #f2f2f2",
"#. c #ffffff",
"QtQtQtQtQtQtQtQtQtQtQtQtQtQtQtQtQtQtQtQtQtQtQtQtQtQtQtQtQtQt.#.a.#QtQtQtQtQtQtQtQtQtQtQtQtQtQtQtQtQtQtQtQtQtQtQtQtQtQtQtQtQtQtQt",
"QtQtQtQtQtQtQtQtQtQtQtQtQtQtQtQtQtQtQtQtQtQtQtQtQtQtQtQt.b.c.d.e.d.c.bQtQtQtQtQtQtQtQtQtQtQtQtQtQtQtQtQtQtQtQtQtQtQtQtQtQtQtQtQt",
"QtQtQtQtQtQtQtQtQtQtQtQtQtQtQtQtQtQtQtQtQtQtQtQtQtQtQt.f.d.d.g.d.g.d.d.fQtQtQtQtQtQtQtQtQtQtQtQtQtQtQtQtQtQtQtQtQtQtQtQtQtQtQtQt",
"QtQtQtQtQtQtQtQtQtQtQtQtQtQtQtQtQtQtQtQtQtQtQtQtQtQt.h.d.d.d.d.i.d.d.d.d.hQtQtQtQtQtQtQtQtQtQtQtQtQtQtQtQtQtQtQtQtQtQtQtQtQtQtQt",
"QtQtQtQtQtQtQtQtQtQtQtQtQtQtQtQtQtQtQtQtQtQtQtQt.j.k.d.d.l.m.n.o.p.q.r.d.d.k.jQtQtQtQtQtQtQtQtQtQtQtQtQtQtQtQtQtQtQtQtQtQtQtQtQt",
"QtQtQtQtQtQtQtQtQtQtQtQtQtQtQtQtQtQtQtQtQtQtQt.s.d.d.d.d.t.u.v.w.x.y.z.d.d.d.d.sQtQtQtQtQtQtQtQtQtQtQtQtQtQtQtQtQtQtQtQtQtQtQtQt",
"QtQtQtQtQtQtQtQtQtQtQtQtQtQtQtQtQtQtQtQtQtQt.A.d.d.i.d.B.C.D.E.F.G.H.I.J.d.i.d.d.AQtQtQtQtQtQtQtQtQtQtQtQtQtQtQtQtQtQtQtQtQtQtQt",
"QtQtQtQtQtQtQtQtQtQtQtQtQtQtQtQtQtQtQtQtQtQt.K.d.e.d.L.d.d.d.M.N.M.d.d.d.O.d.e.d.KQtQtQtQtQtQtQtQtQtQtQtQtQtQtQtQtQtQtQtQtQtQtQt",
"QtQtQtQtQtQtQtQtQtQtQtQtQtQtQtQtQtQtQtQtQt.P.d.e.d.Q.R.d.S.T.d.U.d.T.S.d.R.V.d.W.d.PQtQtQtQtQtQtQtQtQtQtQtQtQtQtQtQtQtQtQtQtQtQt",
"QtQtQtQtQtQtQtQtQtQtQtQtQtQtQtQtQtQtQtQtQt.X.d.Y.d.Z.d.0.1.2.d.3.d.2.1.0.d.4.d.5.d.XQtQtQtQtQtQtQtQtQtQtQtQtQtQtQtQtQtQtQtQtQtQt",
"QtQtQtQtQtQtQtQtQtQtQtQtQtQtQtQtQtQtQtQt.6.d.e.7.d.8.d.9#.##.d#a.d###..9.d#b.d.5#c.d.6QtQtQtQtQtQtQtQtQtQtQtQtQtQtQtQtQtQtQtQtQt",
"QtQtQtQtQtQtQtQtQtQtQtQtQtQtQtQtQtQtQtQt#d.d#e#f.d.R.d#g#h.d.d#i.d.d#j#g.d#k.d#l#m.d#dQtQtQtQtQtQtQtQtQtQtQtQtQtQtQtQtQtQtQtQtQt",
"QtQtQtQtQtQtQtQtQtQtQtQtQtQtQtQtQtQtQtQt#d.d#e#n.d#o.d#p#b.d#q#r#s.d#t#u.d#v.d#w#x.d#dQtQtQtQtQtQtQtQtQtQtQtQtQtQtQtQtQtQtQtQtQt",
"QtQtQtQtQtQtQtQtQtQtQtQtQtQtQtQtQtQtQtQt#d.d#y#z.d#A#B.d.d.d#C#D#E.d.d.d#F#G.d#H#I.d#dQtQtQtQtQtQtQtQtQtQtQtQtQtQtQtQtQtQtQtQtQt",
"QtQtQtQtQtQtQtQtQtQtQtQtQtQtQtQtQtQtQtQt#J.d#K#L.d#M#N#A#O#P#Q#R#S#T#o#U#V#W.d#X#Y.d#JQtQtQtQtQtQtQtQtQtQtQtQtQtQtQtQtQtQtQtQtQt",
"QtQtQtQtQtQtQtQtQtQtQtQtQtQtQtQtQtQtQtQtQt.c.d#Z.d#0#1#G.D#2#3.s#4#5#6#7#8#9.d#z.d.cQtQtQtQtQtQtQtQtQtQtQtQtQtQtQtQtQtQtQtQtQtQt",
"QtQtQtQtQtQtQtQtQtQtQtQtQtQtQtQtQtQtQtQtQta..da#.daaabac.d.d.d.i.d.d.dadaeaf.d#Y.da.QtQtQtQtQtQtQtQtQtQtQtQtQtQtQtQtQtQtQtQtQtQt",
"QtQtQtQtQtQtQtQtQtQtQtQtQtQtQtQtQtQtQtQtQtagah.dai.d.d.da#ajaka.akal#Y.d.d.da#.dahamQtQtQtQtQtQtQtQtQtQtQtQtQtQtQtQtQtQtQtQtQtQt",
"QtQtQtQtQtQtQtQtQtQtQtQtQtQtQtQtQtQtQtQtQtanao.dapaq.d.daras.d.g.dasat.d.dauav.dawaxQtQtQtQtQtQtQtQtQtQtQtQtQtQtQtQtQtQtQtQtQtQt",
"QtQtQtQtQtQtQtQtQtQtQtQtQtQtQtQtQtQtQtQtQtQtay.d#u#s.d.d.d.d.iaz.i.d.d.d.d#uaA.daBaCQtQtQtQtQtQtQtQtQtQtQtQtQtQtQtQtQtQtQtQtQtQt",
"QtQtQtQtQtQtQtQtQtQtQtQtQtQtQtQtQtQtQtQtQtQtaDaE.daF.daGaHaIaJaKaLaMaN#b.d.8.daOaPaQQtQtQtQtQtQtQtQtQtQtQtQtQtQtQtQtQtQtQtQtQtQt",
"QtQtQtQtQtQtQtQtQtQtQtQtQtQtQtQtQtQtQtQtQtQtQtaR.d.0.d.daSaTaUaVaWaX.R.d.daY.daZa0a1QtQtQtQtQtQtQtQtQtQtQtQtQtQtQtQtQtQtQtQtQtQt",
"QtQtQtQtQtQtQtQtQtQtQtQtQtQtQtQtQtQtQtQtQtQtQta2aE.d.0.d.da3a4a5a6a3.d.d#p.da7a8a9QtQtQtQtQtQtQtQtQtQtQtQtQtQtQtQtQtQtQtQtQtQtQt",
"QtQtQtQtQtQtQtQtQtQtQtQtQtQtQtQtQtQtQtQtQtQtQtQtb.b#.d.daN.d.d.G.d.daN.d.dbabbQtQtQtQtQtQtQtQtQtQtQtQtQtQtQtQtQtQtQtQtQtQtQtQtQt",
"QtQtbcQtQtQtQtQtQtQtQtQtQtQtQtQtQtQtQtQtQtQtQtQtQtbdbebf.d.d#o.d#o.d.dbgbhbibjQtQtQtQtQtQtQtQtQtQtQtQtQtQtQtQtQtQtQtQtQtQtQtQtQt",
"bcbkQtQtQtQtQtQtQtQtQtQtQtQtQtQtQtQtQtQtQtQtQtQtQtQtblbmbn.d.D.dbg.d#MbobpbqQtQtQtQtQtQtQtQtQtQtQtQtQtQtQtQtQtQtQtQtQtQtQtQtQtQt",
"brQtQtQtQtQtQtQtQtQtQtQtQtQtQtQtQtQtQtQtQtQtQtQtQtQtbsbt.d.dbu.dbv.d.dbwbxbyQtQtQtQtQtQtQtQtQtQtQtQtQtQtQtQtQtQtQtQtQtQtQtQtQtQt",
"QtQtQtQtQtQtQtQtQtQtQtQtQtQtQtQtQtQtQtQtQtQtQtQtQtQtbzbA.d#qbB.dbC#q.dbDbEbFQtQtQtQtQtQtQtQtQtQtQtQtQtQtQtQtQtQtQtQtQtQtQtQtQtQt",
"QtQtQtQtQtQtQtQtQtQtQtQtQtQtQtQtQtQtQtQtQtQtQtQtQtbGbH.d.dbIbJ.d#EbK.d.dbLbMbNQtQtQtQtQtQtQtQtQtQtQtQtQtQtQtQtQtQtQtQtQtQtQtQtQt",
"QtQtQtQtQtQtQtQtQtQtQtQtQtQtQtQtQtQtQtQtQtQtQtbObPbQbg.d#pbR#P.d#obSaN.d#MbTbUbVa1QtQtQtQtQtQtQtQtQtQtQtQtQtQtQtQtQtQtQtQtQtQtQt",
"QtQtQtQtQtQtQtQtQtQtQtQtQtQtQtQtQtQtQtQt#JbWbX.d.d.d.d.dbYbZ#o.d#oaTb0.d.d.d.d.db1b2#JQtQtQtQtQtQtQtQtQtQtQtQtQtQtQtQtQtQtQtQtQt",
"QtQtQtQtQtQtQtQtQtQtQtQtQtQtQtQtQtQtQtb3#e.d.d.ibf#q.db4b5b6.dbA.db7b8#v.d#q.D.d.d.d#eb3QtQtQtQtQtQtQtQtQtQtQtQtQtQtQtQtQtQtQtQt",
"QtQtQtQtQtQtQtQtQtQtQtQtQtQtQtQtQtQtb9#c.d#Y.i.d.d.dc.c#cacb.dcc.d.Ocdceb4.d.d.d.i#Y.d#cb9QtQtQtQtQtQtQtQtQtQtQtQtQtQtQtQtQtQtQt",
"QtQtQtQtQtQtQtQtQtQtQtQtQtQtQtQtQtQtcf.d.d.d.d.d#obIcg#v.d.d#uch#p.d.db4cicj#o.d.d.d.d.dcfQtQtQtQtQtQtQtQtQtQtQtQtQtQtQtQtQtQtQt",
"QtQtQtQtQtQtQtQtQtQtQtQtQtQtQtQtckcl.d.d.dcm.E.d.d.dcn.dcocpb5cqcrcs.0.dct.d.d.dcu.X.d.d.dclckQtQtQtQtQtQtQtQtQtQtQtQtQtQtQtQtQt",
"QtQtQtQtQtQtQtQtQtQtQtQtQtQt.b.X.d.d.d.d.dcvcw.d.d#o.d.dcxcyczcAcBcC#M.d.d.d.d.dah#L.d.d.d.d.d.X.bQtQtQtQtQtQtQtQtQtQtQtQtQtQtQt",
"QtQtQtQtQtQtQtcDcEcFQtQtQtcG.d.d#K.d.dcH.d.D.dcI#o.d#P.d#ucJcKcLcMcNcO.d.i.d.d#m.d#Y.dcf.d.d#w.d.dcGQtQtQtcFcEcDQtQtQtQtQtQtQtQt",
"QtQtQtQtQtcPcQ.d.d.dcR.Y.W.i.d.e.d.dcScT.d.dbJcU.dap.d.d.dcVcW#ccXcY.d.d.daO.dcZc0.d.dc1c2.d.d.e.d.i.W.YcR.d.d.dcQcPQtQtQtQtQtQt",
"QtQtc3.Xc4.d.d.d.d.d.d.d.d.d.d.d.d.d.d.d.d.dc5aa.dc6.dc..d.Hc7c8c9d..dd#.dda.d.Edb.d.d.d.d.d.d.d.d.d.d.d.d.d.d.d.d.dc4.Xc3QtQtQt",
"QtQtdc.d.d.d.d.d.d#lcucudddedfdgdhdidjdkdl.d.d.da3dm.d.2dndodpdqdrdsdt.Z.ddubJ.d.d.icPdvdwdwdxdgdfdeddcucu#l.d.d.d.d.d.ddcQtQtQt",
"QtQt.7.ddy.d.ddz.ddwQtQtQtQtQtQta1dAdBdCdDdE.d.ddFdG.ddHdIdJdKdLdMdNdOdH.ddPbJ.d.ddQQtQtQtQtQtQtQtQtQtQtQtdw.ddz.d.ddy.d.7QtQtQt",
"QtQtdR.ddS.d.ddT.d.ddUQtQtQtQtQtQtQta1a1QtdVdW.d.dbv.ddXdYdZ.Vd0d1d2d3d4.dd5.d.ddWd6QtQtQtQtQtQtQtQtQtQtdU.d.ddT.d.ddS.ddRQtQtQt",
"QtQtQtd7d8#m.dd9e.e#QtQtQtQtQtQtQtQtQtQtQtQtan.e.d.d.deaebecedeeefegehei.d.d.d.eejQtQtQtQtQtQtQtQtQtQtQtQte#e.d9.d#md8d7QtQtQtQt",
"QtQtQtQtQtekelQtQtQtQtQtQtQtQtQtQtQtQtQtQtQtQtem.d.d.d.ieneoepeqereset.i.d.d.demQtQtQtQtQtQtQtQtQtQtQtQtQtQtQtQtelekQtQtQtQtQtQt",
"QtQtQtQtQtQtQtQtQtQtQtQtQtQtQtQtQtQtQtQtQtQtQteudy.d.d.d.devewexeyez.d.d.d.d#neuQtQtQtQtQtQtQtQtQtQtQtQtQtQtQtQtQtQtQtQtQtQtQtQt",
"QtQtQtQtQtQtQtQtQtQtQtQtQtQtQtQtQtQtQtQtQtQtQte#.d.d.d.d.d.DeAeBeCeD.d.d.d.d.d.fQtQtQtQtQtQtQtQtQtQtQtQtQtQtQtQtQtQtQtQtQtQtQtQt",
"QtQtQtQtQtQtQtQtQtQtQtQtQtQtQtQtQtQtQtQtQteEeFeG.d.d.d.d.deHeIeJeKeL.d.d.d.d.deMeNQtQtQtQtQtQtQtQtQtQtQtQtQtQtQtQtQtQtQtQtQtQtQt",
"QtQtQtQtQtQtQtQtQtQtQtQtQtQtQtQtQtQtQteOePa#.d.d.d.d.D.d.d.deQeReS.d.d.dcw.d.d.d.deTeUeVQtQtQtQtQtQtQtQtQtQtQtQtQtQtQtQtQtQtQtQt",
"QtQtQtQtQtQtQtQtQtQtQtQtQtQtQtQtQtd8eW.d.d.d.d.d.d.d.d.d.d.d.deX.d.d.d.d.d.d.d.d.d.d.d.d.ld8QtQtQtQtQtQtQtQtQtQtQtQtQtQtQtQtQtQt",
"QtQtQtQtQtQtQtQtQtQtQtQtQtQtQtQtQteY.d.d.0#q.d.TeZe0.H.d.d.d.d.d.d.d.d.d.He0eZ.T.d#q.0.d.de1QtQtQtQtQtQtQtQtQtQtQtQtQtQtQtQtQtQt",
"QtQtQtQtQtQtQtQtQtQtQtQtQtQtQtQtQte2.d.de3.de4e5#s#s.d.dbfe6e7dee8e9f..d.d#s#se5e4.df#.d.dfaQtQtQtQtQtQtQtQtQtQtQtQtQtQtQtQtQtQt",
"QtQtQtQtQtQtQtQtQtQtQtQtQtQtQtQtQtfbat.dfc.d.d.d.d.d#u.dfdfea1Qtfffgfh.d#b.d.d.d.d.dfi.dfja1QtQtQtQtQtQtQtQtQtQtQtQtQtQtQtQtQtQt",
"QtQtQtQtQtQtQtQtQtQtQtQtQtQtQtQtQtejfk.d.dfl.d.dfmfnfo.i.dfpQtQtQtfq.d.GfrfseZ.d.dft.d.dfuQtQtQtQtQtQtQtQtQtQtQtQtQtQtQtQtQtQtQt",
"QtQtQtQtQtQtQtQtQtQtQtQtQtQtQtQtQtanaDfv.d.d.0.d.dfwfxfy.dfzfAQtfAfz.dfBfCfD.d.d#P.d.dfEa9QtQtQtQtQtQtQtQtQtQtQtQtQtQtQtQtQtQtQt",
"QtQtQtQtQtQtQtQtQtQtQtQtQtQtQtQtQtQtQtfffFfG.d.d.d.dcQfH.Y.dfIQtfI.dcQfJfK.d.d.d.dfLfMQtQtQtQtQtQtQtQtQtQtQtQtQtQtQtQtQtQtQtQtQt",
"QtQtQtQtQtQtQtQtQtQtQtQtQtQtQtQtQtQtQtQtQtQtfN.d.d.d#wc1e#.dfOQtfO.dfPc1#w.d.d.dc1QtQtQtQtQtQtQtQtQtQtQtQtQtQtQtQtQtQtQtQtQtQtQt",
"QtQtQtQtQtQtQtQtQtQtQtQtQtQtQtQtQtQtQtQtQtfQ.d.d.d.ifRc1#K.dfSQtfS.d#wc1fR.i.d.d.dfQQtQtQtQtQtQtQtQtQtQtQtQtQtQtQtQtQtQtQtQtQtQt",
"QtQtQtQtQtQtQtQtQtQtQtQtQtQtQtQtQtQtQtQtfT.d.dfU.i.dfVfW.d#yQtQtQt#y.dfWfV.d.ddy.d.dfTQtQtQtQtQtQtQtQtQtQtQtQtQtQtQtQtQtQtQtQtQt",
"QtQtQtQtQtQtQtQtQtQtQtQtQtQtQtQtQtQtdTfS.d.d.W.d.dfXfY.d.dfZQtQtQtfZ.d.dfU.l.d.d.g.d.dfSdTQtQtQtQtQtQtQtQtQtQtQtQtQtQtQtQtQtQtQt",
"QtQtQtQtQtQtQtQtQtQtQtQtQtQtQtQtQtf0.d.d.d.d.d#cf1e#.d.df2QtQtQtQtQtf2.d.d.5f3.W.d.d.d.d.df0QtQtQtQtQtQtQtQtQtQtQtQtQtQtQtQtQtQt",
"QtQtQtQtQtQtQtQtQtQtQtQtQtQtQtQtQtf4#x.d.lcQ.g.d.d.d.df5QtQtQtQtQtQtQtf5.d.d.d.d.gcQ.l.d#xf4QtQtQtQtQtQtQtQtQtQtQtQtQtQtQtQtQtQt",
"QtQtQtQtQtQtQtQtQtQtQtQtQtQtQtQtQtQtf6dz.d.d.d.d.dahfTQtQtQtQtQtQtQtQtQtfTah.d.d.d.d.ddzf6QtQtQtQtQtQtQtQtQtQtQtQtQtQtQtQtQtQtQt",
"QtQtQtQtQtQtQtQtQtQtQtQtQtQtQtQtQtQtQtf7f8f8f9d7g.QtQtQtQtQtQtQtQtQtQtQtQtQtg.d7f9f8f8f7QtQtQtQtQtQtQtQtQtQtQtQtQtQtQtQtQtQtQtQt",
"QtQtQtQtQtQtQtQtQtQtQtQtQtQtQtQtQtQtQtQtQtQtQtQtQtQtQtQtQtQtQtQtQtQtQtQtQtQtQtQtQtQtQtQtQtQtQtQtQtQtQtQtQtQtQtQtQtQtQtQtQtQtQtQt"};
