/* XPM */
static char *dummy[]={
"8 8 23 1",
"e c None",
"# c None",
". c None",
"r c #020101",
"f c #020101",
"k c #020101",
"t c #020101",
"d c #020101",
"a c #020101",
"q c #020101",
"l c #020101",
"i c #020101",
"h c #020101",
"j c #020101",
"m c #020101",
"o c #020101",
"b c #020101",
"c c #020101",
"n c #020101",
"u c #020101",
"s c #020101",
"g c #020101",
"p c #020101",
".#abcdee",
"efghijfe",
"eklefmfe",
"e##fnoee",
"eeepqree",
"eeesteee",
"eeee#eee",
"..eur#ee"};
