/* XPM */
static char *dummy[]={
"64 64 139 2",
"Qt c None",
"ac c #353535",
".f c #363636",
".k c #373737",
".d c #383838",
".c c #393939",
".b c #3a3a3a",
".l c #3b3b3b",
".g c #3c3c3c",
".e c #3d3d3d",
".p c #3e3e3e",
".a c #3f3f3f",
".D c #404040",
".h c #414141",
".q c #424242",
".j c #434343",
".# c #444444",
".m c #454545",
".i c #464646",
".o c #474747",
".w c #484848",
".v c #494949",
".n c #4a4a4a",
".r c #4b4b4b",
".J c #4c4c4c",
".R c #4d4d4d",
".9 c #4e4e4e",
".u c #4f4f4f",
".s c #505050",
".C c #515151",
".x c #525252",
"#B c #535353",
".t c #545454",
"#e c #555555",
"#f c #565656",
".K c #575757",
".X c #585858",
"#H c #595959",
"#. c #5a5a5a",
".I c #5b5b5b",
".8 c #5c5c5c",
".3 c #5d5d5d",
".Q c #5e5e5e",
"#n c #5f5f5f",
".Y c #606060",
"#i c #616161",
".5 c #626262",
".y c #636363",
"#w c #646464",
"#d c #656565",
".7 c #666666",
"#p c #676767",
".W c #686868",
"#I c #696969",
"#T c #6a6a6a",
"#0 c #6b6b6b",
"#x c #6c6c6c",
"## c #6d6d6d",
".2 c #6e6e6e",
".P c #6f6f6f",
"#V c #707070",
".V c #717171",
"#r c #727272",
"#Z c #737373",
"#g c #747474",
"a# c #757575",
"#j c #767676",
".6 c #787878",
"#q c #797979",
"#C c #7a7a7a",
"ae c #7b7b7b",
".Z c #7c7c7c",
"#Q c #7d7d7d",
"#6 c #7e7e7e",
"#v c #7f7f7f",
"ab c #808080",
".4 c #818181",
"#a c #848484",
"#Y c #858585",
"#7 c #868686",
"#5 c #878787",
"#X c #888888",
"ad c #898989",
"ag c #8a8a8a",
"#R c #8b8b8b",
"#m c #8c8c8c",
"#o c #8d8d8d",
"#8 c #8e8e8e",
"#U c #8f8f8f",
"#c c #909090",
".1 c #919191",
".0 c #929292",
"#9 c #939393",
"af c #949494",
"#J c #959595",
".L c #969696",
"#S c #979797",
"#G c #989898",
"#P c #999999",
"ah c #9a9a9a",
"a. c #9c9c9c",
"#h c #9d9d9d",
"#l c #9e9e9e",
".S c #9f9f9f",
".z c #a0a0a0",
"#b c #a1a1a1",
"ai c #a3a3a3",
"aa c #a5a5a5",
".B c #a6a6a6",
"#A c #a7a7a7",
"#O c #a8a8a8",
".U c #b2b2b2",
".O c #b5b5b5",
"#k c #b7b7b7",
"#4 c #b9b9b9",
".E c #bababa",
"#y c #bdbdbd",
"#u c #bfbfbf",
"#s c #c0c0c0",
".H c #c2c2c2",
".A c #c3c3c3",
"#z c #c5c5c5",
"#W c #c7c7c7",
"#D c #c8c8c8",
"#M c #cacaca",
"#1 c #cecece",
".T c #cfcfcf",
"#F c #d3d3d3",
".M c #d5d5d5",
"#3 c #d8d8d8",
".F c #d9d9d9",
"#2 c #dadada",
".N c #dbdbdb",
"#N c #dcdcdc",
".G c #dddddd",
"#L c #dedede",
"#t c #dfdfdf",
"#E c #e0e0e0",
"#K c #e1e1e1",
"QtQtQtQtQtQtQtQtQtQtQtQtQtQtQtQtQtQtQtQtQtQtQtQtQtQtQtQtQtQtQtQtQtQtQtQtQtQtQtQtQtQtQtQtQtQtQtQtQtQtQtQtQtQtQtQtQtQtQtQtQtQtQtQt",
"QtQtQtQtQtQtQtQtQtQtQtQtQtQtQtQtQtQtQtQtQtQtQtQtQtQtQtQtQtQtQtQtQtQtQtQtQtQtQtQtQtQtQtQtQtQtQtQtQtQtQtQtQtQtQtQtQtQtQtQtQtQtQtQt",
"QtQtQtQtQtQtQtQtQtQtQtQtQtQtQtQtQtQtQtQtQtQtQtQtQtQtQtQtQtQtQtQtQtQtQtQtQtQtQtQtQtQtQtQtQtQtQt.#.a.b.c.c.c.b.d.eQtQtQtQtQtQtQtQt",
"QtQtQtQtQtQtQtQtQtQtQtQtQtQtQtQtQtQtQtQt.f.f.f.f.f.f.f.fQtQtQtQtQtQtQtQtQtQtQtQtQtQtQtQtQt.d.c.f.f.f.f.f.f.f.f.f.d.cQtQtQtQtQtQt",
"QtQtQtQtQtQtQtQtQtQtQtQtQt.d.c.c.c.d.d.f.f.f.f.f.f.f.f.f.f.fQtQtQtQtQtQtQtQtQtQtQtQtQt.e.c.f.f.d.g.h.i.i.i.j.e.d.f.f.cQtQtQtQtQt",
"QtQtQtQtQtQtQtQtQtQtQt.j.c.f.f.f.f.f.f.f.k.l.m.n.o.h.p.k.f.f.fQtQtQtQtQtQtQtQtQtQtQt.p.f.f.d.q.n.n.r.s.t.u.r.n.n.#.c.f.c.fQtQtQt",
"QtQtQtQtQtQtQtQtQtQt.p.k.f.d.a.q.m.m.v.w.n.n.n.n.n.n.n.n.g.f.f.gQtQtQtQtQtQtQtQtQt.c.f.f.a.n.n.n.x.y.z.A.B.C.n.n.n.o.d.f.d.fQtQt",
"QtQtQtQtQtQtQtQtQt.l.f.f.g.n.n.n.n.n.n.n.n.n.n.n.n.n.n.n.n.D.f.f.cQtQtQtQtQtQtQt.c.f.c.j.n.n.n.s.y.E.F.G.H.I.J.n.n.n.v.c.f.dQtQt",
"QtQtQtQtQtQtQtQt.b.f.k.j.n.n.n.n.n.n.n.n.n.n.n.n.n.n.n.n.n.n.D.f.f.c.fQtQtQtQt.p.f.c.n.n.n.n.r.K.L.M.N.O.P.Q.R.n.n.n.n.w.f.f.fQt",
"QtQtQtQtQtQtQt.l.f.d.w.n.n.n.n.n.n.n.n.J.n.n.n.n.n.n.n.n.n.n.n.j.c.f.d.fQtQtQt.f.f.m.n.n.n.n.r.K.S.T.U.V.W.X.r.n.n.n.n.n.l.f.fQt",
"QtQtQtQtQtQt.g.f.k.o.n.n.n.n.n.r.Y.Z.0.B.1.2.3.R.J.n.n.t.4.C.n.n.v.b.f.cQtQt.d.f.a.n.n.n.n.n.n.s.5.6.2.7.8.9.n.r.r.n.n.n.p.f.fQt",
"QtQtQtQtQt.f.f.f.q.n.n.n.n.n.n.n.n.9#.###a#b.B.B.B#c.I.n.n#d.r.n.n.n.d.fQt.b.f.g.n.n.n.n.n.n.n.r.u#e#f.C.r.9.K.8.8.x.r.n.p.f.fQt",
"QtQtQtQt.f.f.f.D.n.n.n.n.n.n.t.3.t.9.n.n.n.n.8#g#h.B.B#i.r.n.u.n.n.n.j.f.d.f.d.n.n.n.n.n.n.n.r.r.n.n.n.n.s.Y.W#j#k#l.t.n.g.f.fQt",
"QtQtQtQt.k.f.d.n.n.n.n.n.7.0.B.B.B.B#m#g#n.R.n.n.n.3#o.B#m#e.n.n.n.n.n.f.f.f.e.n.n.n.n.n.R#p#q#r.K.n.n.J#..W.P#s#t#u#e.n.d.f.fQt",
"QtQtQt.f.f.c.n.n.n.n.C#c.B#v.Q.u.n.J#e#e.3.8#w#w.R.n.n#x.B.B#g.n.n.n.n.c.f.f.#.n.n.n.n.P#y.T#z#A.4#B.n.9#n#C#D#E#F#c.u.#.f.fQtQt",
"QtQtQt.d.f.h.n.n.n.t.B#G#H.n.n.r.s.9.n.n.n.n.n.n.t.V.R.n#I.B.B.I.n.n.n.b.f.k.n.n.n.r#J.N#K#K#L#M#G#..n.R.8.O#N.T#O.K.r.c.f.fQtQt",
"QtQt.b.f.b.n.n.n.n#P#c.t.n.K#v.z#Q#f.n.n.r#i.6.I.n.n#i.u.n#i.B#G.R.n.n.D.f.c.n.n.r#R.N#K#K#K#K#F#S.x.n.r.s#T#U#g#f.r.e.f.fQtQtQt",
"QtQt.d.f.q.n.X.n#e.B#..n.8.B.B##.n.n.x#f.u.n.r#V#v.s.n.W.s.n#j.B#Q.n.n.n.j.n.n.n#f#s#E#K#K#K#E#W##.n.n.n.r.R.9.J.n.q.f.f.kQtQtQt",
"Qt.l.f.b.n.5.6.n.7#X.n#H.B.B#I.n.r.V.B.B.z.2.n.n#w#G.r.n#Y.n.t.B.B.r.n.n.n.n.n.n.8#u#L#K#K#t.T.6.r.n.n.n.n.n.n.n.j.f.f.kQtQtQtQt",
"Qt.b.f.D.n#G.P.n#x.2.n#r.B#r.n.9#a#Z#f#f#f###U.C.n#0#T.n.t.J.n#X.B#B.n.n.n.n.n.n.C.L#1#2#3#4.Q.R.n.n.n.n.n.n.n.D.k.f.fQtQtQtQtQt",
"Qt.d.f.w.r#B#q.n#I#w.n.Z#S.J.n#a.P.n.n.n.n.n.Q#5.9.n#6.X.n#T.n#p.B.t.n.n.n.n.n.n.n#e#Q#o.P.r.n.n.n.n.n.n.n.#.b.f.f.fQtQtQtQtQtQt",
"Qt.d.f.w.r.n#7.n.I.8.n#U#V.n#p#8.n.n#R#G#9.t.n#g#6.n#H.Z.n.I.r.s.B.9.n.n.n.n.n.n.n.n.n.n.n.n.n.n.n.n.n.h.b.f.f.k.kQtQtQtQtQtQtQt",
"Qt.c.f.m.r.n.4.n.r.t.na..t.n#ca#.n##.B.B.B#R.n.K.B.s.R#J.n.X#B.n.0.n.n.n.n.n.r.D.k.d.c.n.w.j.h.p.g.b.k.f.f.k.fQtQtQtQtQtQtQtQtQt",
"Qt.c.f.m.r.n#a.t.n.n.x#b.n.x.B#0.n#w.Z.B.B.W.n#I.B.K.n#l.n#B.y.n#i.n.n.n.n.n.n.a.f.f.f.f.f.f.f.f.f.f.f.d.fQtQtQtQtQtQtQtQtQtQtQt",
"Qt.c.f.m.n.n#6#0.n.n.u.B.9.n#V.1.R.n.K.B#X.n.n#P.B.K.n#l.n#B.P.n.R.n.n.n.n.n.n.n.p.f.f.f.k.k.c.l.e.cQtQtQtQtQtQtQtQtQtQtQtQtQtQt",
"Qt.l.f.h.n.n#p.Z.n.J.n.0.6.n.n.x#p#6#V#I.9.n#r.B.B.s.r.z.n#B#5.n.n.n.n.n.n.n.n.n.n.j.l.fQtQtQtQtQtQtQtQtQtQtQtQtQtQtQtQtQtQtQtQt",
"Qt.p.f.a#C.9.n#6.n#H.n.t#7#c.3.n.n.n.n.n.n#I.B.B#v.n.3#G.n.xaa.r.n.n.n.n.n.n.n.h.d.k.k.k.kQtQtQtQtQtQtQtQtQtQtQtQtQtQtQtQtQtQtQt",
"Qt.h.f.g#0#x.n.V.J.n#n.n.n#e.Q#r#V.y#I#Z#8.B.Bab.C.n.Z.Z.n.y#J.n.n.n.n.n.r.n.n.g.f.k.k.f.facQtQtQt.f.f.f.f.f.f.fQtQtQtQtQtQtQtQt",
"Qt.a.f.e.X#X.n#H#g.n.n#0.x.n.n.n.n.u#n######.I.n.n#d.B.X.n#T.t.n.n.n.n.n.n.n.n.n.i.n.n.p.f.dQtQt.p.f.f.f.f.f.f.f.kQtQtQtQtQtQtQt",
"Qt.l.f.l.r.B.x.nad#q.J.n.9#xae.5.x.n.n.n.n.n.n.x#Z.B#8.n.s.n.n.n.n.n.n.n.n.n.g.p.o.n.n.w.k.f.k.l.f.f.e.o.n.w.#.b.f.cQtQtQtQtQtQt",
"Qt.p.f.b.naf#Z.n.I.B#c.K.n.n.C#q.B.1#a.6.6.6#c.B.B.B.I.n.r.n.n.n.n.n.n.n.n.w.f.f.k.q.n.n.j.k.f.f.k.h.n.n.n.n.n.n.c.f.bQtQtQtQtQt",
"Qt.f.f.k.n#..B.K.n.X#o.B#o#i.n.n.u.2#J.B.B.B.B.B#U#p.n.C.n.n.n.n.n.n.n.q.l.d.k.d.f.f.m.n.n.n.#.#.v.n.n.n.n.n.n.n.n.d.fQtQtQtQtQt",
"QtQt.c.f.a.n#C#G.I.n.J#wag.B#a.I.n.n.n.X#n#.#B.J.n.n.u.y.n.n.n.n.n.n.n.f.f.f.f.f.k.f.d.#.n.n.n.n.n.n.n.e.l.l.a.n.n.j.f.bQtQtQtQt",
"QtQt.p.f.k.o.s#P.B.W.n.n.n#B#q.B#c#I.C.n.n.n.n.9.I.2#P.u.n.n.n.n.n.n.n.D.h.v.#.b.f.k.f.f.h.n.n.n.n.i.c.f.f.f.f.c.n.v.k.k.b.fQtQt",
"QtQtQt.g.f.c.v.r.t#m.0.y#H.n.n.J.5#g#g#r#q#Xah.Baaah.I.n.n.n.n.n.n.n.n.n.n.n.n.n.d.fQt.f.f.p.a.e.b.f.f.f.f.f.d.f.p.n.g.f.f.f.fQt",
"QtQtQtQt.c.f.c.w.n.n.Xad.B.Q.J.n.n.n.n.n.n.9.X#n.X.n.n.n.n.n.n.n.n.n.n.a.k.c.a.n.h.f.kQt.f.f.f.f.f.f.fQtQtQt.f.f.f.a.n.#.b.f.fQt",
"QtQtQtQt.f.d.f.d.#.n.n.r.Z.B.B#7#V#I#n.Q#e.r.n.n.n.n.n.n.n.n.n.n.n.n.n.p.f.f.f.g.n.e.f.kQt.d.k.f.fQtQtQtQtQtQt.f.f.f.k.g.k.f.fQt",
"QtQtQtQtQtQt.b.f.f.h.n.n.n.s.s#e.Qaeai.B.B#5#I#e.r.n.n.n.n.n.n.n.n.n.n.#.j.D.k.f.#.n.d.fQtQtQtQtQtQtQtQtQtQtQtQt.f.f.f.f.f.fQtQt",
"QtQtQtQtQtQtQt.l.f.f.b.i.n.n.n.n.n.n.n.n.n.j.D.n.n.n.n.n.n.n.n.n.n.n.h.f.l.f.d.f.l.n.h.f.f.f.f.f.f.bQtQtQtQtQtQtQtQt.f.f.fQtQtQt",
"QtQtQtQtQtQtQtQt.p.d.f.f.l.a.m.n.n.n.n.n.n.k.f.a.n.n.n.n.n.n.n.n.n.n.i.d.fQtQt.f.d.n.n.p.k.d.g.#.d.f.d.fQtQtQtQtQtQtQtQtQtQtQtQt",
"QtQtQtQtQtQtQtQtQtQt.c.f.f.f.f.f.k.c.c.c.k.f.c.v.n.n.n.n.n.n.n.n.n.n.n.m.f.fQtQt.f.g.n.n.n.m.l.p.o.c.f.kQtQtQtQtQtQtQtQtQtQtQtQt",
"QtQtQtQtQtQtQtQtQtQtQt.f.f.c.d.f.f.f.f.f.k.f.e.n.n.n.n.n.n.n.n.n.n.n.n.n.D.f.fQt.k.f.c.e.l.k.f.f.p.n.d.f.fQtQtQtQtQtQtQtQtQtQtQt",
"QtQtQtQtQtQtQtQtQtQtQtQtQtQtQt.f.f.f.f.f.f.f.q.n.n.n.n.n.n.n.n.n.n.n.n.n.n.D.f.fQtQt.f.f.f.f.g.f.k.n.c.f.fQtQtQtQtQtQtQtQtQtQtQt",
"QtQtQtQtQtQtQtQtQtQtQtQtQtQtQtQtQtQt.f.f.f.f.n.n.n.n.n.n.n.n.n.n.n.n.n.n.n.n.e.f.fQtQtQtQtQtQt.d.f.c.f.f.fQtQtQtQtQtQtQtQtQtQtQt",
"QtQtQtQtQtQtQtQtQtQtQtQtQtQtQtQtQtQtQt.b.f.p.n.n.n.n.n.n.n.n.n.n.n.n.n.n.n.n.n.b.f.fQtQtQtQtQt.a.f.f.d.cQtQtQtQtQtQtQtQtQtQtQtQt",
"QtQtQtQtQtQtQtQtQtQtQtQtQtQtQtQtQtQtQt.d.f.#.n.n.n.n.n.n.n.n.n.n.n.n.n.n.n.n.n.n.b.f.fQtQtQtQtQtQtQtQtQtQtQtQtQtQtQtQtQtQtQtQtQt",
"QtQtQtQtQtQtQtQtQtQtQtQtQtQtQtQtQtQt.f.f.k.n.n.n.n.n.n.n.n.n.n.n.n.n.n.n.n.n.n.n.o.c.f.fQtQtQtQtQtQtQtQtQtQtQtQtQtQtQtQtQtQtQtQt",
"QtQtQtQtQtQtQtQtQtQtQtQtQtQtQtQtQtQt.l.f.l.n.n.n.n.n.n.n.n.n.n.n.n.n.n.n.n.n.n.n.n.i.c.f.f.fQtQtQtQtQtQtQtQtQtQtQtQtQtQtQtQtQtQt",
"QtQtQtQtQtQtQtQtQtQtQtQtQtQtQtQtQtQt.c.f.q.n.n.n.n.n.n.n.p.b.h.m.n.n.n.n.n.n.n.n.n.n.v.c.f.f.fQtQtQtQtQtQtQtQtQtQtQtQtQtQtQtQtQt",
"QtQtQtQtQtQtQtQtQtQtQtQtQtQtQtQtQt.f.f.k.n.n.n.n.n.n.n.n.k.f.f.f.k.g.j.n.n.n.n.n.n.n.n.n.c.f.k.fQtQtQtQtQtQtQtQtQtQtQtQtQtQtQtQt",
"QtQtQtQtQtQtQtQtQtQtQtQtQtQtQtQtQt.f.f.b.n.n.n.n.n.n.n.v.f.f.f.f.f.f.f.d.e.m.n.n.n.n.n.n.v.b.f.f.fQtQtQtQtQtQtQtQtQtQtQtQtQtQtQt",
"QtQtQtQtQtQtQtQtQtQtQtQtQtQtQtQtQt.c.f.g.n.n.n.n.n.n.n.i.f.fQtQt.f.f.f.f.f.f.c.j.n.n.n.n.n.n.l.f.fQtQtQtQtQtQtQtQtQtQtQtQtQtQtQt",
"QtQtQtQtQtQtQtQtQtQtQtQtQtQtQtQtQtQt.f.k.n.n.n.n.n.n.n.j.f.fQtQtQtQtQt.f.f.f.f.f.g.n.n.n.n.n.q.f.fQtQtQtQtQtQtQtQtQtQtQtQtQtQtQt",
"QtQtQtQtQtQtQtQtQtQtQtQtQtQtQtQtQtQt.c.f.a.n.n.n.n.n.n.p.f.fQtQtQtQtQtQtQtQt.d.f.c.n.n.n.n.q.f.f.fQtQtQtQtQtQtQtQtQtQtQtQtQtQtQt",
"QtQtQtQtQtQtQtQtQtQtQtQtQtQtQtQtQtQtQt.f.f.g.n.n.n.n.n.i.k.f.f.fQtQtQtQtQt.c.f.b.v.n.n.n.a.f.f.fQtQtQtQtQtQtQtQtQtQtQtQtQtQtQtQt",
"QtQtQtQtQtQtQtQtQtQtQtQtQtQtQtQtQtQtQt.D.k.f.c.m.n.n.n.n.i.d.f.k.fQtQtQt.k.f.k.o.n.n.n.p.f.f.fQtQtQtQtQtQtQtQtQtQtQtQtQtQtQtQtQt",
"QtQtQtQtQtQtQtQtQtQtQtQtQtQtQtQtQtQtQtQt.D.d.f.f.e.i.n.n.n.v.b.f.f.fQt.f.f.k.m.n.n.w.b.f.f.fQtQtQtQtQtQtQtQtQtQtQtQtQtQtQtQtQtQt",
"QtQtQtQtQtQtQtQtQtQtQtQtQtQtQtQtQtQtQtQtQtQt.f.f.f.f.l.h.n.n.v.g.f.fQt.f.f.q.n.n.l.f.f.f.fQtQtQtQtQtQtQtQtQtQtQtQtQtQtQtQtQtQtQt",
"QtQtQtQtQtQtQtQtQtQtQtQtQtQtQtQtQtQtQtQtQtQtQt.f.f.f.f.f.k.n.n.q.f.fQt.f.c.n.n.m.f.fQtQtQtQtQtQtQtQtQtQtQtQtQtQtQtQtQtQtQtQtQtQt",
"QtQtQtQtQtQtQtQtQtQtQtQtQtQtQtQtQtQtQtQtQtQtQtQtQt.f.f.f.k.n.w.d.f.fQt.f.l.n.n.n.h.k.f.f.fQtQtQtQtQtQtQtQtQtQtQtQtQtQtQtQtQtQtQt",
"QtQtQtQtQtQtQtQtQtQtQtQtQtQtQtQtQtQtQtQtQtQtQt.f.f.f.f.e.v.n.g.f.fQtQt.f.k.n.n.n.n.o.b.f.f.fQtQtQtQtQtQtQtQtQtQtQtQtQtQtQtQtQtQt",
"QtQtQtQtQtQtQtQtQtQtQtQtQtQtQtQtQtQtQtQtQtQt.f.f.f.c.j.n.n.q.f.k.fQtQt.d.f.d.a.#.o.o.o.g.f.fQtQtQtQtQtQtQtQtQtQtQtQtQtQtQtQtQtQt",
"QtQtQtQtQtQtQtQtQtQtQtQtQtQtQtQtQtQtQtQtQtQt.c.f.p.n.n.n.D.d.f.cQtQtQt.f.f.f.f.f.f.f.f.f.f.fQtQtQtQtQtQtQtQtQtQtQtQtQtQtQtQtQtQt",
"QtQtQtQtQtQtQtQtQtQtQtQtQtQtQtQtQtQtQtQtQtQt.d.f.l.l.c.k.f.f.cQtQtQtQtQtQt.f.f.f.f.f.f.f.f.fQtQtQtQtQtQtQtQtQtQtQtQtQtQtQtQtQtQt"};
