/* XPM */
static char *dummy[]={
"64 64 611 2",
"Qt c None",
"dt c None",
"b8 c #000000",
"#l c #363636",
"gB c #363636",
"cI c #808080",
"cg c #555555",
"gK c #363636",
"dN c #404040",
".5 c #363636",
"f4 c #363636",
"dO c #494949",
"#I c #363636",
"gr c #363636",
"gO c #363636",
"ga c #363636",
"fg c #363636",
"gt c #363636",
"hA c #363636",
"#U c #363636",
"hw c #363636",
"ge c #3b3b3b",
"#4 c #363636",
"gj c #363636",
"h. c #363636",
"hv c #363636",
".h c #363636",
"fD c #363636",
"fZ c #363636",
"hj c #363636",
"g7 c #4a4a4a",
"hG c #363636",
"cf c #373737",
".B c #363636",
"eQ c #4a4a4a",
"#a c #414141",
"bl c #363636",
"gs c #3e3e3e",
"aS c #363636",
"eD c #363636",
"ft c #363636",
"gW c #4a4a4a",
"dY c #363636",
".o c #363636",
"hl c #363636",
"gS c #363636",
"#p c #484848",
"#J c #4b4b4b",
"dX c #353535",
"hi c #363636",
"fc c #363636",
"hr c #363636",
"fq c #363636",
".u c #383838",
"f8 c #363636",
"fB c #363636",
"ds c #393939",
"ht c #444444",
"fT c #4a4a4a",
"gE c #363636",
"gQ c #414141",
"aC c #363636",
"hE c #363636",
"fM c #424242",
"hb c #404040",
"eC c #4a4a4a",
"f5 c #363636",
"c0 c #373737",
"he c #363636",
"gL c #393939",
"fx c #3d3d3d",
"gZ c #363636",
"fd c #363636",
"ab c #363636",
"dD c #363636",
".U c #363636",
"df c #363636",
"fA c #363636",
".# c #444444",
"fC c #363636",
".g c #3d3d3d",
"hd c #363636",
"hp c #363636",
"aB c #363636",
".C c #3d3d3d",
"gh c #3a3a3a",
"fO c #454545",
"d# c #363636",
"cs c #373737",
"hs c #363636",
"gf c #3c3c3c",
"ed c #414141",
"bS c #363636",
"gi c #404040",
"hn c #363636",
"eY c #363636",
"dv c #4a4a4a",
"go c #393939",
".p c #383838",
"bT c #3a3a3a",
".L c #434343",
"hz c #393939",
"eR c #3e3e3e",
"gm c #4a4a4a",
".n c #363636",
"et c #474747",
"gT c #363636",
"ch c #3b3b3b",
".i c #363636",
"gv c #3b3b3b",
"ha c #363636",
"fz c #373737",
"fp c #363636",
"hk c #363636",
"fj c #5e5e5e",
"eu c #3e3e3e",
"hq c #424242",
"au c #464646",
"gg c #3a3a3a",
"g6 c #363636",
"dr c #3d3d3d",
"gH c #363636",
"hC c #363636",
"hm c #363636",
"fy c #383838",
"fU c #3e3e3e",
"bc c #8c8c8c",
"fQ c #363636",
"cO c #363636",
"h# c #373737",
".v c #393939",
".t c #393939",
"#1 c #4a4a4a",
".m c #363636",
"eb c #3e3e3e",
"a1 c #616161",
"cn c #717171",
"#0 c #4a4a4a",
"e5 c #747474",
"## c #3c3c3c",
"e4 c #626262",
"fi c #a6a6a6",
"gV c #363636",
"dq c #3b3b3b",
"gk c #3a3a3a",
"e0 c #929292",
"dZ c #363636",
"dg c #4a4a4a",
"ak c #6e6e6e",
"dz c #707070",
"f6 c #393939",
"hF c #363636",
"g4 c #363636",
".6 c #3e3e3e",
"ap c #818181",
".A c #363636",
"c# c #585858",
"hB c #363636",
"dp c #393939",
"dV c #808080",
"gq c #363636",
"f0 c #393939",
"e7 c #797979",
"gu c #363636",
"dM c #373737",
"ev c #949494",
"fb c #363636",
"g5 c #393939",
"e3 c #4c4c4c",
"dT c #727272",
"f. c #a5a5a5",
"g2 c #4a4a4a",
"fw c #373737",
"b7 c #363636",
"dP c #414141",
"e6 c #727272",
"eG c #959595",
"a0 c #a6a6a6",
"fP c #363636",
"dC c #a6a6a6",
"gb c #363636",
"ez c #4a4a4a",
"cN c #6a6a6a",
"gw c #363636",
"#y c #383838",
"aN c #3e3e3e",
"da c #4b4b4b",
"al c #5d5d5d",
"ea c #383838",
"fH c #5e5e5e",
"gN c #363636",
"g# c #404040",
"eI c #4a4a4a",
"co c #a6a6a6",
"ee c #3b3b3b",
"fV c #4a4a4a",
"am c #4d4d4d",
"gl c #363636",
"ac c #3c3c3c",
"e1 c #636363",
"d3 c #363636",
"cv c #6c6c6c",
"eU c #797979",
"hh c #363636",
"d4 c #3f3f3f",
"bG c #545454",
"gd c #363636",
"d2 c #363636",
"a8 c #373737",
"#Z c #4a4a4a",
"d0 c #363636",
"er c #373737",
".a c #3f3f3f",
"cY c #5b5b5b",
".j c #363636",
"fN c #3d3d3d",
"gP c #4a4a4a",
"gJ c #363636",
"g8 c #404040",
"#E c #4a4a4a",
"cr c #858585",
"hD c #393939",
"f9 c #363636",
"hc c #383838",
"g3 c #4a4a4a",
"aq c #515151",
"eE c #5a5a5a",
"fI c #7b7b7b",
"gD c #373737",
"eX c #3a3a3a",
"a3 c #434343",
"ae c #4b4b4b",
"dS c #5e5e5e",
".w c #393939",
"ct c #3a3a3a",
"e8 c #888888",
"eN c #8a8a8a",
"hx c #383838",
"hf c #363636",
"g9 c #373737",
"cj c #666666",
"dF c #7a7a7a",
"gX c #363636",
"gC c #373737",
"gy c #3a3a3a",
"#D c #4a4a4a",
"c2 c #4b4b4b",
"ca c #555555",
"bE c #363636",
"cZ c #373737",
"#G c #4a4a4a",
"bd c #555555",
"cb c #5c5c5c",
"gU c #363636",
"f3 c #373737",
"#H c #4a4a4a",
"cz c #545454",
"hg c #363636",
"de c #383838",
"hy c #393939",
"e. c #4a4a4a",
"dw c #4c4c4c",
"dk c #575757",
"dd c #616161",
"eM c #646464",
"dA c #696969",
".l c #363636",
"dE c #3e3e3e",
"gM c #464646",
"eq c #484848",
"c8 c #4a4a4a",
"cV c #989898",
"fJ c #a3a3a3",
"bt c #a6a6a6",
"at c #393939",
"fE c #3a3a3a",
"d1 c #363636",
"#V c #3b3b3b",
"eZ c #3c3c3c",
"g0 c #434343",
"f2 c #474747",
"c3 c #4b4b4b",
"cA c #4c4c4c",
"d7 c #4f4f4f",
"gG c #363636",
"gx c #3e3e3e",
"eo c #4a4a4a",
"fk c #4c4c4c",
"eS c #686868",
"eg c #a6a6a6",
"f7 c #3d3d3d",
"ar c #4a4a4a",
"d5 c #585858",
"bV c #999999",
".k c #363636",
".x c #393939",
".e c #3a3a3a",
"#m c #3b3b3b",
"f1 c #3c3c3c",
"#5 c #434343",
"bU c #4a4a4a",
"af c #606060",
"dI c #909090",
"dl c #a6a6a6",
".f c #383838",
".V c #3e3e3e",
"fs c #444444",
"aD c #4a4a4a",
"d8 c #5f5f5f",
"fo c #363636",
"fe c #383838",
".4 c #393939",
"du c #3b3b3b",
"fL c #404040",
"#F c #4a4a4a",
"ef c #4b4b4b",
"eH c #a6a6a6",
".q c #393939",
"fR c #4a4a4a",
"#h c #a6a6a6",
"hu c #363636",
"gY c #383838",
"e# c #3e3e3e",
"gc c #4a4a4a",
"c9 c #4b4b4b",
"bm c #515151",
"by c #535353",
"dG c #595959",
"dJ c #5d5d5d",
"dK c #7f7f7f",
"aj c #919191",
"fW c #363636",
"bF c #383838",
".D c #393939",
"#z c #3a3a3a",
"eB c #414141",
"aE c #4a4a4a",
"dQ c #6b6b6b",
"c6 c #6d6d6d",
"dB c #727272",
".T c #363636",
"#3 c #383838",
".K c #393939",
"#B c #4a4a4a",
"an c #4c4c4c",
"fG c #555555",
"bq c #646464",
"cK c #696969",
"dU c #707070",
"dc c #7c7c7c",
"d. c #373737",
".s c #383838",
"c1 c #393939",
"eP c #3f3f3f",
"ad c #4a4a4a",
"ao c #545454",
"ew c #575757",
"cB c #888888",
"fY c #383838",
"fh c #393939",
".b c #3a3a3a",
"gn c #3f3f3f",
"#2 c #4a4a4a",
"dH c #545454",
"bL c #5b5b5b",
"d9 c #a6a6a6",
"gp c #383838",
".d c #393939",
"cu c #404040",
"eJ c #444444",
".P c #4a4a4a",
"eT c #535353",
"aV c #545454",
"bp c #5c5c5c",
"b1 c #616161",
"ek c #6c6c6c",
"fK c #a6a6a6",
".y c #383838",
"eL c #393939",
"ff c #3e3e3e",
"#Y c #4a4a4a",
"b# c #4d4d4d",
"fl c #4e4e4e",
"ex c #515151",
"dR c #5f5f5f",
"ho c #363636",
"eK c #383838",
"fn c #3f3f3f",
"c. c #424242",
"eA c #434343",
".Q c #474747",
"gI c #494949",
"#n c #4a4a4a",
"cQ c #4b4b4b",
"ej c #4e4e4e",
"bW c #575757",
"ba c #5d5d5d",
"b. c #5f5f5f",
"cp c #6e6e6e",
"cX c #747474",
"ei c #797979",
"g. c #363636",
"fm c #373737",
"b9 c #383838",
".c c #393939",
"fX c #3c3c3c",
".O c #454545",
"cJ c #484848",
"gF c #494949",
"#C c #4a4a4a",
"bJ c #545454",
"fv c #555555",
"bI c #595959",
"cq c #646464",
"aT c #363636",
"ec c #373737",
"cP c #383838",
"eW c #393939",
"es c #3b3b3b",
"g1 c #3c3c3c",
"gR c #434343",
"eV c #444444",
"ep c #474747",
"#T c #4a4a4a",
"b2 c #4d4d4d",
"fF c #505050",
"dW c #515151",
"c7 c #575757",
"eO c #5a5a5a",
"dh c #6b6b6b",
"em c #a6a6a6",
"fS c #383838",
"#b c #393939",
"as c #3a3a3a",
"be c #3d3d3d",
"#K c #3e3e3e",
"fa c #3f3f3f",
"gz c #414141",
"aU c #4a4a4a",
"a2 c #4b4b4b",
"cc c #525252",
"e2 c #595959",
"f# c #5b5b5b",
"fu c #5e5e5e",
"bZ c #616161",
"bK c #696969",
"di c #707070",
"dy c #7e7e7e",
"ey c #919191",
"c4 c #9c9c9c",
"cC c #a6a6a6",
"#g c #c3c3c3",
".z c #363636",
"do c #373737",
"#k c #383838",
"#q c #393939",
".N c #3b3b3b",
"aP c #3c3c3c",
"fr c #3f3f3f",
".R c #414141",
"#A c #434343",
"#W c #484848",
"gA c #494949",
"#c c #4a4a4a",
"aM c #4b4b4b",
"#X c #4c4c4c",
"dn c #4d4d4d",
"bo c #4f4f4f",
"dx c #525252",
"aX c #545454",
"eF c #585858",
"ci c #626262",
"#e c #636363",
"cT c #676767",
"cy c #6a6a6a",
"cx c #6b6b6b",
"d6 c #747474",
"en c #8e8e8e",
"cS c #8f8f8f",
"#f c #a0a0a0",
"aJ c #a6a6a6",
"bP c #cacaca",
".r c #363636",
".M c #373737",
".E c #383838",
".3 c #393939",
"aO c #3a3a3a",
"aa c #3b3b3b",
".F c #3c3c3c",
".J c #3d3d3d",
".S c #3e3e3e",
".7 c #3f3f3f",
"#o c #404040",
".G c #414141",
".W c #424242",
".I c #434343",
".2 c #444444",
".8 c #454545",
".H c #464646",
"#j c #474747",
"#. c #484848",
".9 c #494949",
".X c #4a4a4a",
".Y c #4b4b4b",
"#x c #4c4c4c",
"#S c #4d4d4d",
"aA c #4e4e4e",
".1 c #4f4f4f",
".Z c #505050",
"#i c #515151",
"#d c #525252",
"cD c #535353",
".0 c #545454",
"aQ c #555555",
"aR c #565656",
"#L c #575757",
"a# c #585858",
"cl c #595959",
"aF c #5a5a5a",
"#w c #5b5b5b",
"az c #5c5c5c",
"aW c #5d5d5d",
"#R c #5e5e5e",
"bz c #5f5f5f",
"a4 c #606060",
"b0 c #616161",
"av c #626262",
"#r c #636363",
"br c #646464",
"aL c #656565",
"ay c #666666",
"bf c #676767",
"a. c #686868",
"cm c #696969",
"b5 c #6a6a6a",
"db c #6b6b6b",
"bs c #6c6c6c",
"aG c #6d6d6d",
"ax c #6e6e6e",
"#Q c #6f6f6f",
"cd c #707070",
"#9 c #717171",
"bh c #727272",
"cw c #737373",
"aY c #747474",
"c5 c #757575",
"a5 c #767676",
"aw c #787878",
"bg c #797979",
"bA c #7a7a7a",
"el c #7b7b7b",
"ag c #7c7c7c",
"bY c #7d7d7d",
"cM c #7e7e7e",
"bn c #7f7f7f",
"bx c #818181",
"aH c #848484",
"cR c #868686",
"cL c #878787",
"ck c #888888",
"eh c #898989",
"b3 c #8b8b8b",
"a9 c #8c8c8c",
"bb c #8d8d8d",
"cU c #8e8e8e",
"b6 c #8f8f8f",
"aK c #909090",
"dj c #919191",
"ah c #929292",
"cW c #939393",
"bM c #959595",
"#M c #969696",
"b4 c #979797",
"bH c #989898",
"dm c #999999",
"e9 c #9a9a9a",
"aZ c #9d9d9d",
"a7 c #9e9e9e",
"#6 c #9f9f9f",
"bX c #a0a0a0",
"aI c #a1a1a1",
"dL c #a5a5a5",
"ai c #a6a6a6",
"bw c #a7a7a7",
"bR c #a8a8a8",
"#8 c #b2b2b2",
"#P c #b5b5b5",
"a6 c #b7b7b7",
"cH c #b9b9b9",
"#s c #bababa",
"bu c #bdbdbd",
"bk c #bfbfbf",
"bi c #c0c0c0",
"#v c #c2c2c2",
"bv c #c5c5c5",
"ce c #c7c7c7",
"bB c #c8c8c8",
"cE c #cecece",
"#7 c #cfcfcf",
"bD c #d3d3d3",
"#N c #d5d5d5",
"cG c #d8d8d8",
"#t c #d9d9d9",
"cF c #dadada",
"#O c #dbdbdb",
"bQ c #dcdcdc",
"#u c #dddddd",
"bO c #dedede",
"bj c #dfdfdf",
"bC c #e0e0e0",
"bN c #e1e1e1",
"QtQtQtQtQtQtQtQtQtQtQtQtQtQtQtQtQtQtQtQtQtQtQtQtQtQtQtQtQtQtQtQtQtQtQtQtQtQtQtQtQtQtQtQtQtQtQtQtQtQtQtQtQtQtQtQtQtQtQtQtQtQtQtQt",
"QtQtQtQtQtQtQtQtQtQtQtQtQtQtQtQtQtQtQtQtQtQtQtQtQtQtQtQtQtQtQtQtQtQtQtQtQtQtQtQtQtQtQtQtQtQtQtQtQtQtQtQtQtQtQtQtQtQtQtQtQtQtQtQt",
"QtQtQtQtQtQtQtQtQtQtQtQtQtQtQtQtQtQtQtQtQtQtQtQtQtQtQtQtQtQtQtQtQtQtQtQtQtQtQtQtQtQtQtQtQtQtQt.#.a.b.c.c.d.e.f.gQtQtQtQtQtQtQtQt",
"QtQtQtQtQtQtQtQtQtQtQtQtQtQtQtQtQtQtQtQt.h.i.j.k.l.m.n.oQtQtQtQtQtQtQtQtQtQtQtQtQtQtQtQtQt.p.q.r.r.r.r.r.r.r.r.r.s.tQtQtQtQtQtQt",
"QtQtQtQtQtQtQtQtQtQtQtQtQt.u.v.w.x.s.y.z.r.r.r.r.r.r.r.r.A.BQtQtQtQtQtQtQtQtQtQtQtQtQt.C.D.r.r.E.F.G.H.H.H.I.J.E.r.r.KQtQtQtQtQt",
"QtQtQtQtQtQtQtQtQtQtQt.L.c.r.r.r.r.r.r.r.M.N.O.P.Q.R.S.M.r.T.UQtQtQtQtQtQtQtQtQtQtQt.V.r.r.E.W.X.X.Y.Z.0.1.Y.X.X.2.3.r.4.5QtQtQt",
"QtQtQtQtQtQtQtQtQtQt.6.M.r.E.7.W.8.8.9#..X.X.X.X.X.X.X.X.F.r.r##QtQtQtQtQtQtQtQt#a#b.r.r.7.X#c.X#d#e#f#g#h#i.X.X.X#j#k.r.f#lQtQt",
"QtQtQtQtQtQtQtQtQt#m.r.r.F#n.X.X.X.X.X.X.X.X.X.X.X.X.X.X.X#o.r.r.qQtQtQtQtQtQt#p#q.r.3.I.X.X.X.Z#r#s#t#u#v#w#x.X.X.X.9.3.r#yQtQt",
"QtQtQtQtQtQtQtQt#z.r.M#A.X.X.X.X.X#B#n.X#C#D#E#F#G#H.X.X.X.X#o.r.r.q#IQtQtQt#J#K.r.3.X.X.X.X.Y#L#M#N#O#P#Q#R#S#T.X.X.X#..r.r#UQt",
"QtQtQtQtQtQtQt#V.r.E#W.X.X.X.X.X.X.X.X#X.X.X.X.X#Y#Z#0#1#2.X.X.I.3.r#3#4QtQt#5.r.r.8.X.X.X.X.Y#L#6#7#8#9a.a#.Y.X#c.X.X.Xaa.rabQt",
"QtQtQtQtQtQtac.r.M#j.X.X.X.Xadaeafagahaiajakalaman.X.Xaoapaq.Xar.9as.ratQtau.E.r.7.X.X.X.X.X.X.ZavawaxayazaA.X.Y.Y.X.X.X.S.raBQt",
"QtQtQtQtQtaC.r.r.W.X.X.XaDaE.X.X.XaAaFaGaHaIaiaJaiaK#w.X.XaLaM.X#T.X#k.raNaO.raP.X.X.X.X.X.X.X.Y.1aQaR#i.YaA#Lazaz#d.Y.X.S.raBQt",
"QtQtQtQtaSaT.r#o.X.X.XaU.X.XaVaWaXaA.X.X.X.XazaYaZaia0a1a2.X.1.X#c.Xa3.r#k.r#k#T.X.X.X.X.X.X.Y.Y.X.X.X.X.Za4a.a5a6a7.0.X.F.raBQt",
"QtQtQtQta8.r.E.X.X#C.X.Xayahaiaiaiaia9aYb.b#.X.X.Xbabbaibcbd.X.X.X#c.X.r.r.rbe#c.X.X.XaU#Sbfbgbh#L.XaU#xaFa.#QbibjbkaQ.X.E.rblQt",
"QtQtQt.U.r.3.X.X#F.XbmaKaibn#Rbo.X#xaQaQaWbpbqbr#S.X.XbsaibtaY.X#C.X.X#b.r.r.2.X.X.X.X#Qbu#7bvbwbxby.XaAbzbAbBbCbDaK.1.2.rbEQtQt",
"QtQtQtbF.r.G.X#F.XbGaibHbI.X.X.Y.ZaA.X.X.X.X.X.XbJ#9#S.XbKaiaibL.X.X.XaO.r.M#c.X.X.YbM#ObNbNbObPbHaF.X#Saz#PbQ#7bR#L.Y.3.rbSQtQt",
"QtQtbT.raO.XbU#naUbVaK.0.XbWbnbXbYaR.X.X.YbZaw#w.X.Xb0bo.Xb1aibHb2.X.X#o.r.3.X.X.Yb3#ObNbNbNbNbDb4#d.X.Y.Zb5b6aYaR.Y.J.rb7b8b8Qt",
"QtQtb9.rc..Xc#.XcaaiaF.XcbaiaiaG.X.XccaRbo.X.Ycdbn.Z.Xa..Z.Xa5aibY.X.X.X.I.X.X.XaRbibCbNbNbNbCceaG.X.X.X.Y#SaA#x.X.W.r.zcfcgcgQt",
"Qtch.raO.Xciaw.Xcjck.Xclaiaicm.X.YcncoaibXcp.X.XcqbH.Y.Xcr.X.0aiai.Y.X.X.X.X.X.XazbkbObNbNbj#7aw.Y.X.X.X.X.X.X.X.I.r.rcsb8b8QtQt",
"Qtct.rcu.XbH#Q.Xcvax.Xbhaibh.XaAaHcwaRaRaRaGb6#i.Xcxcy.XczcA.XcBcCcD.X#T.X.X.X.X#i#McEcFcGcH#R#S.X.X.X.X.X.X.X#o.M.r.jQtQtcIQtQt",
"Qt.y.rcJa2cDbg.XcKbr.Xagb4#x.XaH#Q.X.X.X.X.X#RcLaA.XcMa#.XcN.Xbfai.0.X.X.X.X.X.X.XaQbYbb#Q.Y.X.X.X.X#T.X.X.2aO.r.rcOQtQtQtb8QtQt",
"QtcP.r#.cQ.XcR.X#waz.XcScd.XcTcU.X.Xb3cVcW.0.XcXcM.Xclag.XcY.Y.ZaiaA.X.X#B.X.X.X.X.X.X.X.X.X.X.X.X.X.X.GaO.r.rcZc0QtQtQtb8QtQtQt",
"Qtc1.r.8c2.Xbx.Xc3.0.Xc4.0.XaKc5.Xc6aiaiaib3.Xc7ai.Z#SbM.Xa#cD.Xah.X.X.Xc8.Xc9#o.M.E.3.X#..I.G.S.FaO.M.r.rd.d#QtQtQtQtQtQtQtQtQt",
"Qtc1.r.8da.XaHbJ.X.X#daI.X#daidb.XbrdccCaia..Xcmai#L.Xa7.XcD#r.Xdd.X.X.Xad.X.X.7.r.r.r.r.r.r.r.r.r.r.zdedfQtQtQtQtQtQtQtQtQtQtQt",
"Qtc1.r.8dg.XcMdh.X#C.1aiaA.Xdidj#S.Xdkdlck.X.Xdmai#L.Xa7.XcD#Q.Xdn.X#c.XaU.X.X.X.S.r.r.rdod.dpdqdrdsQtQtdtdtdtdtdtdtdtb8QtQtQtQt",
"Qtdu.r.Gdv.Xbfag.Xdw.Xahaw.X.XdxbfdydzdAaA.XdBdCai.Z.YbX.XcDcL.X.X.X.X.X.X.X.X.X#c.Iaa.rdDQtQtQtQtQtQtQtQtQtQtQtQtQtQtQtQtQtQtQt",
"QtdE.r.7dFaA.XcM.XdG.XdHcRdIdJ.X.X.X.X.X.XcmaiaidK.XaWbH.X#ddL.Y.X.X.X.X.X.X#2.G.E.M.M.MdMb8b8QtQtQtQtQtdtb8dNdOQtQtQtQtQtQtQtQt",
"QtdP.r.FdQbs.X#9#x.XdR.X.XaQdSdTdU#rcmcwcUai#hdVdW.Xagag.X#rbM.X.X.Xad.Xc9.X.X.F.r.M.M.r.rdXb8QtQtdYdZd0d1d2d3bSQtQtQtQtQtQtQtQt",
"Qtd4.r.Jd5ck.Xcld6.X.Xdb#d.X.X.X.Xd7d8aGaGaG#w.X.XaLd9a#.Xb5.0.X.X.Xe..X.X.X#F.X.H.P.Xe#.reaQtQteb.z.r.r.r.r.r.recedQtQtQtQtQtQt",
"Qtee.r.Nefeg#d.Xehei#X.Xejekelav#d.X.X.X.X.X.X#dcwemen.X.Z.X.X.X#c.Xeo.X.X.X.F.Sep.X.Xeq.M.reres.r.r.J#j.X#..2aO.r.3etQtQtQtQtQt",
"Qteu.ras.Xevcw.X#waiaKew.X.XexbgemeyaHawawawaKaJaiai#w.Xa2.X#c.X.Xez.X#T.X#..r.r.M.W.X.XeA.M.r.r.MeB.X.X.X.X.P.X.3.raOeCQtQtQtQt",
"QteD.r.M.XeEai#L.XeFbbaibbb0.X.X.1axeGeHaiaiaiaib6bf.XdW.X#n.X#T.XeI.X.Waa.E.M.E.r.r.8.X.Xad.2eJ.9.X.X.X.X#Y.X.X.XeK.rdEQtQtQtQt",
"QtQteL.r.7.XbAbH#w.X#xeMeNaiaH#w.X.X.Xa#dReOcD#X.X.X.1#r.X.X.X.XaE.XaU.r.r.r.r.r.M.r#k.2.X.XaD.X.X#n.X.JaaaaeP#T.X.I.raOeQQtQtQt",
"QtQteR.r.M#j.ZdmaieS.X.X.XeTeUaiaKcm#i.X.X.X.XaA#waxdm.1.X.X.X.X#n.X.X#o.G.9eVaO.r.M.r.r.G.X.X.X.P.HeW.r.r.r.r#be..9do.MeXeYQtQt",
"QtQtQteZ.r.3.9.Y.0a9e0e1e2.X.Xe3e4e5e5e6e7e8e9aif.e9f#.X.X.X.Xad.X.X.X.X.XaU.X.X.E.raO.r.r.Sfa.JaO.r.rfbfcfdfe.rff.X.F.r.r.rfgQt",
"QtQtQtQtfh.r.3#..X.Xa#ehfifjfk.X.X.X.X.X.Xfla#bza#.X.X.X.X.X.X.X#n.X.X.7.M.3.7.X.G.rfmfn.r.r.r.r.rfofpQtQtQtfq.r.rfr#2fsaO.rftQt",
"QtQtQtQt#IbF.r.E.2#C.X.YagaiaicRcdcmbzfufv.Y.X.X.X.X.X.X.X.X.X.X.X.X.X.S.r.r.r.F.X.J.rfwfxfyfzfAfBQtQtQtQtQtQtfC.r.r.M.Fec.rfDQt",
"QtQtQtQtQtQtfE.r.r.G#C.X.XfFfFfGfHfIfJfKaicLcmaQ.Y.X.X.X.X.XaUaU.X.X.X.2.IfL.M.r.2.X.E.rchfMfNec.DfOQtQtQtQtQtQtfqfP.r.r.rfQQtQt",
"QtQtQtQtQtQtQtee.r.raO.H#Y.X.X.X.X.X.XfR#B.I#o.X.X.X.X.X.X.X.X.X.X.X.G.raa.jfS.raa#c.G.r.r.r.r.r.raOfTQtQtQtQtQtQtQteD.UaSQtQtQt",
"QtQtQtQtQtQtQtQtfUcP.r.raa.7.O#HfV#E#2aUaUdo.rfa.X.X.X.X#c.X.X.X.X.X.H.E.rfW.r.rb9.X.X.S.M#kfXfsfY.rdefZQtQtQtQtQtQtQtQtQtQtQtQt",
"QtQtQtQtQtQtQtQtQtQtf0.z.r.r.r.r.M.3.3.3.M.r.3.9.X.X#C.X.X.X.X.X.X.X.X.8.r.r.r.M.rf1#caU.X.8aa.Sf2.3.rf3QtQtQtQtQtQtQtQtQtQtQtQt",
"QtQtQtQtQtQtQtQtQtQtQtf4f5f6bF.r.r.r.r.r.M.r.J.X.X.X.X.X#c.X.X.X.X.X.X.X#o.r.rdE.M.rfhf7es.M.r.r.S#T.E.rf4QtQtQtQtQtQtQtQtQtQtQt",
"QtQtQtQtQtQtQtQtQtQtQtQtQtQtQtf8dZf9g..raT.r.W.X.X.X#Y.X.X.X.X.X.X.X.X.X#c#o.rg.g#.3.r.r.r.r.F.r.M.X.3.rblQtQtQtQtQtQtQtQtQtQtQt",
"QtQtQtQtQtQtQtQtQtQtQtQtQtQtQtQtQtQtgagb.r.r.X.X.X.X#c.X.Xgc.X.X.X.X.X.X.X.X.J.rgdgegfggghgi.X.E.r#q.r.rgjQtQtQtQtQtQtQtQtQtQtQt",
"QtQtQtQtQtQtQtQtQtQtQtQtQtQtQtQtQtQtQtgk.r.S#Y.X.X.X.X.X.X.X.X.X.X.X#B.X.X.X.XaO.rglQtQtQtQtgmgn.r.r#kgoQtQtQtQtQtQtQtQtQtQtQtQt",
"QtQtQtQtQtQtQtQtQtQtQtQtQtQtQtQtQtQtQtgp.r.2.X.X.X.X.X.X.X.X.X.X.X.X.X.X.X.X.X.XaO.rgqQtQtQtQtQtgrgsQtQtQtQtQtQtQtQtQtQtQtQtQtQt",
"QtQtQtQtQtQtQtQtQtQtQtQtQtQtQtQtQtQtgt.r.MaU.X.X.X.X.X.X.X.X.X.X.X.X.X.X.X.X.X.X#j.3.rguQtQtQtQtQtQtQtQtQtQtQtQtQtQtQtQtQtQtQtQt",
"QtQtQtQtQtQtQtQtQtQtQtQtQtQtQtQtQtQtgv.raa.X.X.X.X.X.X.X.X.X.X.X.X.X.X.X.X.X.X.X.X.H.3.rgwfgQtQtQtQtQtQtQtQtQtQtQtQtQtQtQtQtQtQt",
"QtQtQtQtQtQtQtQtQtQtQtQtQtQtQtQtQtQt.w.r.W.X.X.X.X.X.X.Xgxgygz.8.X.X.X.X.X.X.X.X.X.XgA.3.rb7.5QtQtQtQtQtQtQtQtQtQtQtQtQtQtQtQtQt",
"QtQtQtQtQtQtQtQtQtQtQtQtQtQtQtQtQtgB.z.M#T.X#G.X.X.X.X.XgC.r.r.r.M.F.I.X.X.X.X.X.X.X.X#n.3.rgD.BQtQtQtQtQtQtQtQtQtQtQtQtQtQtQtQt",
"QtQtQtQtQtQtQtQtQtQtQtQtQtQtQtQtQtgE.raO.X.X.X.X.X.X.XgF.rgGgHglg..r.r.E.J.8.X.X.X.X.X.XgIaO.rgJgKQtQtQtQtQtQtQtQtQtQtQtQtQtQtQt",
"QtQtQtQtQtQtQtQtQtQtQtQtQtQtQtQtQtgL.rfX.X.X.X.X.X.X.XgM.rgNQtQtgOfAfb.r.r.r.3.I.X.X.XgP.X.Xaa.rgHQtQtQtQtQtQtQtQtQtQtQtQtQtQtQt",
"QtQtQtQtQtQtQtQtQtQtQtQtQtQtQtQtQtgQ.rdo.X.X.X.X.X.X#CgR.rdZQtQtQtQtQtgSgTgU.r.r.F.X.X.X.X.X.W.rgVQtQtQtQtQtQtQtQtQtQtQtQtQtQtQt",
"QtQtQtQtQtQtQtQtQtQtQtQtQtQtQtQtQtgW.3.r.7.X.X.X.X.X#C.S.rgXQtQtQtQtQtQtQtQtgY.r.3.X.X.X#C.WaT.rgZQtQtQtQtQtQtQtQtQtQtQtQtQtQtQt",
"QtQtQtQtQtQtQtQtQtQtQtQtQtQtQtQtQtQtg0.r.rg1g2g3.X.X.X.Hdo.rg4.5QtQtQtQtQtg5.raO.9.X.X#n.7.z.rg6QtQtQtQtQtQtQtQtQtQtQtQtQtQtQtQt",
"QtQtQtQtQtQtQtQtQtQtQtQtQtQtQtQtQtQtg7g8.M.r.3.8.X.X.X.X.H.E.rg9h.QtQtQth#.r.M#j.X.XaU.S.r.rhaQtQtQtQtQtQtQtQtQtQtQtQtQtQtQtQtQt",
"QtQtQtQtQtQtQtQtQtQtQtQtQtQtQtQtQtQtQtQthbhc.r.r.J.H.X.X.X.9aO.rd1dYQthd.r.M.8.X.X#.aO.raTheQtQtQtQtQtQtQtQtQtQtQtQtQtQtQtQtQtQt",
"QtQtQtQtQtQtQtQtQtQtQtQtQtQtQtQtQtQtQtQtQtQt.iaT.r.raa.G.X.X.9.F.rhfQthg.r.W.X.Xaa.r.rhhhiQtQtQtQtQtQtQtQtQtQtQtQtQtQtQtQtQtQtQt",
"QtQtQtQtQtQtQtQtQtQtQtQtQtQtQtQtQtQtQtQtQtQtQthjhkfo.r.r.M.X.X.W.rgGhl.r.3.X.X.8.r.rhmQtQtQtQtQtQtQtQtQtQtQtQtQtQtQtQtQtQtQtQtQt",
"QtQtQtQtQtQtQtQtQtQtQtQtQtQtQtQtQtQtQtQtQtQtQtQtQthnho.r.M.X#..E.rhphq.raa.X.X.X.G.M.rgdhrQtQtQtQtQtQtQtQtQtQtQtQtQtQtQtQtQtQtQt",
"QtQtQtQtQtQtQtQtQtQtQtQtQtQtQtQtQtQtQtQtQtQtQths.l.r.r.JgA.X.F.r.AQtht.r.M.X.X.X.X#jaO.rhuhvQtQtQtQtQtQtQtQtQtQtQtQtQtQtQtQtQtQt",
"QtQtQtQtQtQtQtQtQtQtQtQtQtQtQtQtQtQtQtQtQtQtf8.r.r.3.I.X.X.W.rfmhwQtQthx.r.E.7.2#j#j#j.F.rbSQtQtQtQtQtQtQtQtQtQtQtQtQtQtQtQtQtQt",
"QtQtQtQtQtQtQtQtQtQtQtQtQtQtQtQtQtQtQtQtQtQthy.r.S.X.X.X#o.E.rhzQtQtQthAhB.r.r.r.r.r.r.r.rhCQtQtQtQtQtQtQtQtQtQtQtQtQtQtQtQtQtQt",
"QtQtQtQtQtQtQtQtQtQtQtQtQtQtQtQtQtQtQtQtQtQtgY.raaaa.3.M.r.rhDQtQtQtQtQtQthEhmhFgdgdgdgdg4hGQtQtQtQtQtQtQtQtQtQtQtQtQtQtQtQtQtQt"};
