/* XPM */
static char *_809c0f00bc5422cdb556a0d6aa9d332WPD6NtPhsjj0aXdN[] = {
/* columns rows colors chars-per-pixel */
"64 64 2 1 ",
"  c #FFB6B6",
". c #FCFFB6",
/* pixels */
"................................................................",
"................................................................",
"................................................................",
"................................................................",
"..........      ............................      ..............",
"..........       ...........................      ..............",
"..........       ...........................      ..............",
"..........        ..........................      ..............",
"..........         .........................      ..............",
"..........         .........................      ..............",
"..........          ........................      ..............",
"..........           .......................      ..............",
"..........           .......................      ..............",
"..........            ......................      ..............",
"..........             .....................      ..............",
"..........             .....................      ..............",
"..........              ....................      ..............",
"..........               ...................      ..............",
"..........               ...................      ..............",
"..........      .         ..................      ..............",
"..........      .          .................      ..............",
"..........      ..         .................      ..............",
"..........      ...         ................      ..............",
"..........      ...          ...............      ..............",
"..........      ....         ...............      ..............",
"..........      .....         ..............      ..............",
"..........      .....          .............      ..............",
"..........      ......         .............      ..............",
"..........      .......         ............      ..............",
"..........      .......          ...........      ..............",
"..........      ........         ...........      ..............",
"..........      .........         ..........      ..............",
"..........      .........          .........      ..............",
"..........      ..........         .........      ..............",
"..........      ...........         ........      ..............",
"..........      ...........          .......      ..............",
"..........      ............         .......      ..............",
"..........      .............         ......      ..............",
"..........      .............          .....      ..............",
"..........      ..............         .....      ..............",
"..........      ...............         ....      ..............",
"..........      ...............          ...      ..............",
"..........      ................         ...      ..............",
"..........      .................         ..      ..............",
"..........      .................          .      ..............",
"..........      ..................         .      ..............",
"..........      ...................               ..............",
"..........      ...................               ..............",
"..........      ....................              ..............",
"..........      .....................             ..............",
"..........      .....................             ..............",
"..........      ......................            ..............",
"..........      .......................           ..............",
"..........      .......................           ..............",
"..........      ........................          ..............",
"..........      .........................         ..............",
"..........      .........................         ..............",
"..........      ..........................        ..............",
"..........      ...........................       ..............",
"..........      ...........................       ..............",
"..........      ............................      ..............",
"................................................................",
"................................................................",
"................................................................"
};
