/* XPM */
static char *dummy[]={
"8 8 37 1",
"a c None",
"k c #552429",
"b c #552429",
"r c #552429",
"I c #552429",
"g c #552429",
"x c #552429",
"E c #552429",
"H c #552429",
"w c #552429",
"c c #552429",
"y c #552429",
". c #552429",
"# c #552429",
"D c #552429",
"l c #552429",
"j c #552429",
"B c #552429",
"n c #552429",
"F c #552429",
"t c #552429",
"h c #552429",
"s c #552429",
"C c #552429",
"d c #552429",
"G c #552429",
"o c #552429",
"i c #552429",
"z c #552429",
"q c #552429",
"f c #552429",
"u c #552429",
"p c #552429",
"e c #552429",
"v c #552429",
"A c #552429",
"m c #552429",
".#aaaabc",
"defgahij",
"klmnopqr",
"aasmmoaa",
"atummvwa",
"xpmyzmAB",
"CADEaFAG",
"xHIaaaEg"};
