/* XPM */
static char *ad8254e6e2de4cc28d71b0867f3e4336J9HG75kua5I8wyGj[] = {
/* columns rows colors chars-per-pixel */
"64 64 2 1 ",
"  c #BEFFB6",
". c #FCFFB6",
/* pixels */
"................................................................",
"................................................................",
"................................................................",
"................................................................",
"................................................................",
"................................................................",
"........................                ........................",
"........................                  ......................",
".......................                    .....................",
"......................                      ....................",
"......................                       ...................",
".....................                         ..................",
".....................         ....            ..................",
".....................        .......           .................",
".....................       .........           ................",
".....................       ..........           ...............",
".....................       ...........          ...............",
".....................       ............          ..............",
".....................       .............          .............",
".....................       ..............         .............",
".....................       ...............        .............",
".....................       ...............        .............",
"......................      ................       .............",
"......................       ................      .............",
"......................       ................      .............",
"......................        ..................................",
"......................         .................................",
"......................          ................................",
"......................          ................................",
".......................           ..............................",
"........................           .............................",
"........................            ............................",
".........................            ...........................",
"..........................            ..........................",
"...........................            .........................",
"............................            ........................",
".............................            .......................",
"..............................            ......................",
"................................           .....................",
"................................            ....................",
".................................           ....................",
"..................................          ....................",
"...................................         ....................",
"....................................        ....................",
".....................................       ....................",
".....................................       ....................",
".....................................       ....................",
"....................................        ....................",
"...................................         ....................",
"...................................         ....................",
"...............      .............         .....................",
"...............       ...........          .....................",
"...............        .........          ......................",
"...............                           ......................",
"...............                          .......................",
"...............                          .......................",
"...............                         ........................",
".................                     ..........................",
"....................                 ...........................",
"................................................................",
"................................................................",
"................................................................",
"................................................................",
"................................................................"
};
