/* XPM */
static char *dummy[]={
"8 8 35 1",
"g c #746d6d",
"h c #746c6c",
"G c #787272",
"j c #3a3a3a",
"u c #3b3b3b",
"s c #3c3b3b",
"v c #3d3c3c",
"t c #3d3d3d",
"B c #403f3f",
"y c #414040",
"w c #424141",
"r c #434242",
"q c #474545",
"i c #484646",
"n c #484647",
"A c #494747",
"b c #4a4747",
"c c #4a4848",
"o c #4c4949",
"k c #4d4a4b",
"z c #6f6768",
"f c #726969",
"E c #72696a",
"p c #726a6a",
"D c #736a6b",
"x c #746b6c",
"l c #746c6c",
"m c #746c6d",
"d c #756c6d",
"e c #756d6e",
"a c #767070",
"F c #777171",
"C c #787373",
". c #797474",
"# c #7a7575",
".#abcdef",
"ghijjkle",
"mnjjjjop",
"qjjjjjjc",
"rstjjuvw",
"dxyjjjzp",
"xmAsBy#C",
"DleeElFG"};
