/* XPM */
static char *cc8a975f1cad4bfbcb33e52b628de703w248kzg6fC2uKx1n[] = {
/* columns rows colors chars-per-pixel */
"64 64 2 1 ",
"  c #FCFFB6",
". c #B6B6FF",
/* pixels */
"                                                                ",
"                                                                ",
"                                                                ",
"                                                                ",
"                                                                ",
"                                                                ",
"                                                                ",
"                                                                ",
"                                                                ",
"                                                                ",
"                                                                ",
"                                                                ",
"                                                                ",
"                                                                ",
"                                                                ",
"                                                                ",
"                                                                ",
"                                                                ",
" ......                                                    .....",
" .......                        ......                    ......",
" ........                       .......                   ......",
" .........                      ........                 .......",
" ...........                   .........                ........",
" ............                  ..........               ........",
" .............                ...........               ........",
"  ............                ............              ........",
"   ............               .............             ....... ",
"     ...........             ..............            ........ ",
"      ..........            ................           .......  ",
"       ..........           ................          ........  ",
"        ..........          .................         ........  ",
"         .........         ...................        ........  ",
"         ..........       .........  .........       ........   ",
"          ..........     .........    .........      ........   ",
"           .........     .........    .........     ........    ",
"           .........    ..........     ........     ........    ",
"            .........   .........      .........   .........    ",
"            .......... .........        ........   ........     ",
"             ......... .........         ........ .........     ",
"              .................          ........ ........      ",
"              .................          .................      ",
"               ...............            ...............       ",
"                ..............            ...............       ",
"                .............              .............        ",
"                 ............              .............        ",
"                 ...........               ............         ",
"                  ..........                ..........          ",
"                   ........                 .........           ",
"                   ........                 .........           ",
"                    ......                  ........            ",
"                    ......                    ......            ",
"                                                                ",
"                                                                ",
"                                                                ",
"                                                                ",
"                                                                ",
"                                                                ",
"                                                                ",
"                                                                ",
"                                                                ",
"                                                                ",
"                                                                ",
"                                                                ",
"                                                                "
};
